<mxfile host="drawio-plugin" modified="2021-09-22T14:01:33.771Z" agent="5.0 (Macintosh; Intel Mac OS X 10_16_0) AppleWebKit/537.36 (KHTML, like Gecko) Chrome/84.0.4147.105 Safari/537.36" etag="fa04wWn-hGychVKG_2Aa" version="14.7.4" type="embed" pages="8"><diagram name="SPIRE" id="wLrx4QkrcoeoC5oZ94Lo"><mxGraphModel dx="870" dy="582" grid="1" gridSize="10" guides="1" tooltips="1" connect="1" arrows="1" fold="1" page="1" pageScale="1" pageWidth="850" pageHeight="1100" math="0" shadow="0"><root><mxCell id="fliY7O6b74fp147CvZl_-0"/><mxCell id="fliY7O6b74fp147CvZl_-1" parent="fliY7O6b74fp147CvZl_-0"/><mxCell id="4Ju82PzuPKSqArWyWa0W-0" value="" style="rounded=0;whiteSpace=wrap;html=1;" parent="fliY7O6b74fp147CvZl_-1" vertex="1"><mxGeometry x="30" y="10" width="800" height="660" as="geometry"/></mxCell><mxCell id="4Ju82PzuPKSqArWyWa0W-1" value="" style="rounded=0;whiteSpace=wrap;html=1;fillColor=#f5f5f5;strokeColor=#666666;fontColor=#333333;" parent="fliY7O6b74fp147CvZl_-1" vertex="1"><mxGeometry x="320" y="130" width="200" height="170" as="geometry"/></mxCell><mxCell id="mQj6pIe9VmFbDKQ4Ky0O-0" value="" style="rounded=0;whiteSpace=wrap;html=1;fillColor=#fff2cc;strokeColor=#d6b656;" parent="fliY7O6b74fp147CvZl_-1" vertex="1"><mxGeometry x="340" y="150" width="160" height="130" as="geometry"/></mxCell><mxCell id="4Ju82PzuPKSqArWyWa0W-2" value="" style="rounded=0;whiteSpace=wrap;html=1;fillColor=#f5f5f5;strokeColor=#666666;fontColor=#333333;" parent="fliY7O6b74fp147CvZl_-1" vertex="1"><mxGeometry x="40" y="340" width="780" height="320" as="geometry"/></mxCell><mxCell id="4Ju82PzuPKSqArWyWa0W-4" value="" style="rounded=0;whiteSpace=wrap;html=1;fillColor=#fff2cc;strokeColor=#d6b656;" parent="fliY7O6b74fp147CvZl_-1" vertex="1"><mxGeometry x="640" y="360" width="160" height="280" as="geometry"/></mxCell><mxCell id="4Ju82PzuPKSqArWyWa0W-5" value="" style="rounded=0;whiteSpace=wrap;html=1;fillColor=#fff2cc;strokeColor=#d6b656;" parent="fliY7O6b74fp147CvZl_-1" vertex="1"><mxGeometry x="60" y="360" width="160" height="280" as="geometry"/></mxCell><mxCell id="yUC3sYW_rqyYogpGtoF2-0" value="" style="edgeStyle=orthogonalEdgeStyle;rounded=0;orthogonalLoop=1;jettySize=auto;html=1;startArrow=none;startFill=0;fillColor=#d5e8d4;strokeColor=#82b366;strokeWidth=2;dashed=1;" parent="fliY7O6b74fp147CvZl_-1" source="4Ju82PzuPKSqArWyWa0W-6" target="xldhokhS5cAAUtdUgwpT-0" edge="1"><mxGeometry relative="1" as="geometry"/></mxCell><mxCell id="4Ju82PzuPKSqArWyWa0W-6" value="&lt;div style=&quot;font-size: 15px&quot;&gt;&lt;font style=&quot;font-size: 15px&quot;&gt;SPIRE Agent&lt;/font&gt;&lt;/div&gt;" style="rounded=0;whiteSpace=wrap;html=1;fillColor=#d5e8d4;strokeColor=#82b366;fontStyle=0" parent="fliY7O6b74fp147CvZl_-1" vertex="1"><mxGeometry x="360" y="370" width="120" height="60" as="geometry"/></mxCell><mxCell id="4Ju82PzuPKSqArWyWa0W-12" style="edgeStyle=orthogonalEdgeStyle;rounded=0;orthogonalLoop=1;jettySize=auto;html=1;entryX=0;entryY=0.5;entryDx=0;entryDy=0;startArrow=none;startFill=0;exitX=0.5;exitY=0;exitDx=0;exitDy=0;fillColor=#d5e8d4;strokeColor=#82b366;dashed=1;fontSize=14;strokeWidth=2;" parent="fliY7O6b74fp147CvZl_-1" source="4Ju82PzuPKSqArWyWa0W-26" target="4Ju82PzuPKSqArWyWa0W-6" edge="1"><mxGeometry relative="1" as="geometry"><mxPoint x="200" y="400" as="sourcePoint"/></mxGeometry></mxCell><mxCell id="4Ju82PzuPKSqArWyWa0W-13" value="Fetch Identities" style="edgeLabel;html=1;align=center;verticalAlign=middle;resizable=0;points=[];fontSize=14;" parent="4Ju82PzuPKSqArWyWa0W-12" vertex="1" connectable="0"><mxGeometry x="-0.1976" y="2" relative="1" as="geometry"><mxPoint x="100" as="offset"/></mxGeometry></mxCell><mxCell id="-jXxVsOiSAoLfy2V1bI--1" value="&lt;font style=&quot;font-size: 14px&quot;&gt;WL API&lt;/font&gt;" style="edgeLabel;html=1;align=center;verticalAlign=middle;resizable=0;points=[];" parent="4Ju82PzuPKSqArWyWa0W-12" vertex="1" connectable="0"><mxGeometry x="-0.7267" y="1" relative="1" as="geometry"><mxPoint as="offset"/></mxGeometry></mxCell><mxCell id="4Ju82PzuPKSqArWyWa0W-16" style="edgeStyle=orthogonalEdgeStyle;rounded=0;orthogonalLoop=1;jettySize=auto;html=1;startArrow=none;startFill=0;fillColor=#d5e8d4;strokeColor=#82b366;entryX=1;entryY=0.5;entryDx=0;entryDy=0;dashed=1;fontSize=14;strokeWidth=2;exitX=0.5;exitY=0;exitDx=0;exitDy=0;" parent="fliY7O6b74fp147CvZl_-1" source="4Ju82PzuPKSqArWyWa0W-31" target="4Ju82PzuPKSqArWyWa0W-6" edge="1"><mxGeometry relative="1" as="geometry"><mxPoint x="660" y="600" as="sourcePoint"/><mxPoint x="480" y="410" as="targetPoint"/></mxGeometry></mxCell><mxCell id="4Ju82PzuPKSqArWyWa0W-17" value="&lt;div style=&quot;font-size: 14px;&quot;&gt;Fetch Identities&lt;/div&gt;" style="edgeLabel;html=1;align=center;verticalAlign=middle;resizable=0;points=[];fontSize=14;" parent="4Ju82PzuPKSqArWyWa0W-16" vertex="1" connectable="0"><mxGeometry x="-0.2232" y="-2" relative="1" as="geometry"><mxPoint x="-106" as="offset"/></mxGeometry></mxCell><mxCell id="-jXxVsOiSAoLfy2V1bI--0" value="&lt;font style=&quot;font-size: 14px&quot;&gt;SDS&lt;/font&gt;" style="edgeLabel;html=1;align=center;verticalAlign=middle;resizable=0;points=[];" parent="4Ju82PzuPKSqArWyWa0W-16" vertex="1" connectable="0"><mxGeometry x="-0.7687" y="-2" relative="1" as="geometry"><mxPoint as="offset"/></mxGeometry></mxCell><mxCell id="4Ju82PzuPKSqArWyWa0W-23" style="edgeStyle=orthogonalEdgeStyle;rounded=0;orthogonalLoop=1;jettySize=auto;html=1;exitX=1;exitY=0.5;exitDx=0;exitDy=0;entryX=0;entryY=0.5;entryDx=0;entryDy=0;startArrow=classic;startFill=1;fillColor=#f8cecc;strokeColor=#b85450;" parent="fliY7O6b74fp147CvZl_-1" source="4Ju82PzuPKSqArWyWa0W-26" edge="1"><mxGeometry relative="1" as="geometry"><mxPoint x="660" y="510" as="targetPoint"/></mxGeometry></mxCell><mxCell id="4Ju82PzuPKSqArWyWa0W-24" value="mTLS" style="edgeLabel;html=1;align=center;verticalAlign=middle;resizable=0;points=[];fontSize=14;" parent="4Ju82PzuPKSqArWyWa0W-23" vertex="1" connectable="0"><mxGeometry x="-0.1286" y="-1" relative="1" as="geometry"><mxPoint as="offset"/></mxGeometry></mxCell><mxCell id="4Ju82PzuPKSqArWyWa0W-26" value="&lt;div style=&quot;font-size: 14px&quot;&gt;&lt;font style=&quot;font-size: 14px&quot;&gt;Service A&lt;br&gt;&lt;/font&gt;&lt;/div&gt;" style="rounded=0;whiteSpace=wrap;html=1;fillColor=#f8cecc;strokeColor=#b85450;" parent="fliY7O6b74fp147CvZl_-1" vertex="1"><mxGeometry x="80" y="480" width="120" height="60" as="geometry"/></mxCell><mxCell id="4Ju82PzuPKSqArWyWa0W-28" value="Node" style="text;html=1;strokeColor=#666666;fillColor=#f5f5f5;align=center;verticalAlign=middle;whiteSpace=wrap;rounded=0;fontSize=14;fontColor=#333333;" parent="fliY7O6b74fp147CvZl_-1" vertex="1"><mxGeometry x="70" y="30" width="70" height="20" as="geometry"/></mxCell><mxCell id="4Ju82PzuPKSqArWyWa0W-29" value="Pod" style="text;html=1;strokeColor=#d6b656;fillColor=#fff2cc;align=center;verticalAlign=middle;whiteSpace=wrap;rounded=0;fontSize=14;" parent="fliY7O6b74fp147CvZl_-1" vertex="1"><mxGeometry x="70" y="60" width="70" height="20" as="geometry"/></mxCell><mxCell id="4Ju82PzuPKSqArWyWa0W-31" value="&lt;font style=&quot;font-size: 14px&quot;&gt;Envoy B&lt;/font&gt;" style="rounded=0;whiteSpace=wrap;html=1;fillColor=#f8cecc;strokeColor=#b85450;" parent="fliY7O6b74fp147CvZl_-1" vertex="1"><mxGeometry x="660" y="480" width="120" height="60" as="geometry"/></mxCell><mxCell id="4Ju82PzuPKSqArWyWa0W-32" value="SPIRE Component" style="text;html=1;strokeColor=#82b366;fillColor=#d5e8d4;align=center;verticalAlign=middle;whiteSpace=wrap;rounded=0;fontSize=14;" parent="fliY7O6b74fp147CvZl_-1" vertex="1"><mxGeometry x="70" y="90" width="130" height="20" as="geometry"/></mxCell><mxCell id="4Ju82PzuPKSqArWyWa0W-33" style="edgeStyle=orthogonalEdgeStyle;rounded=0;orthogonalLoop=1;jettySize=auto;html=1;exitX=0.5;exitY=1;exitDx=0;exitDy=0;" parent="fliY7O6b74fp147CvZl_-1" source="4Ju82PzuPKSqArWyWa0W-32" target="4Ju82PzuPKSqArWyWa0W-32" edge="1"><mxGeometry relative="1" as="geometry"/></mxCell><mxCell id="4Ju82PzuPKSqArWyWa0W-39" value="" style="endArrow=none;dashed=1;html=1;strokeColor=#82b366;strokeWidth=3;fillColor=#d5e8d4;fontColor=#66B2FF;" parent="fliY7O6b74fp147CvZl_-1" edge="1"><mxGeometry width="50" height="50" relative="1" as="geometry"><mxPoint x="600" y="109" as="sourcePoint"/><mxPoint x="750" y="109" as="targetPoint"/></mxGeometry></mxCell><mxCell id="4Ju82PzuPKSqArWyWa0W-40" value="&lt;font style=&quot;font-size: 14px&quot;&gt;Identity plane traffic&lt;/font&gt;" style="edgeLabel;html=1;align=center;verticalAlign=middle;resizable=0;points=[];" parent="4Ju82PzuPKSqArWyWa0W-39" vertex="1" connectable="0"><mxGeometry x="0.1111" y="-2" relative="1" as="geometry"><mxPoint x="-10" y="-22" as="offset"/></mxGeometry></mxCell><mxCell id="xldhokhS5cAAUtdUgwpT-0" value="&lt;br&gt;&lt;br&gt;&lt;br&gt;SPIRE Server" style="rounded=0;whiteSpace=wrap;html=1;fillColor=#d5e8d4;strokeColor=#82b366;fontSize=14;" parent="fliY7O6b74fp147CvZl_-1" vertex="1"><mxGeometry x="360" y="170" width="120" height="90" as="geometry"/></mxCell><mxCell id="-tf-AniHopINlMe96XDy-0" value="" style="aspect=fixed;perimeter=ellipsePerimeter;html=1;align=center;shadow=0;dashed=0;fontColor=#4277BB;labelBackgroundColor=#ffffff;fontSize=12;spacingTop=3;image;image=img/lib/ibm/blockchain/certificate_authority.svg;" parent="fliY7O6b74fp147CvZl_-1" vertex="1"><mxGeometry x="400" y="180" width="40" height="40" as="geometry"/></mxCell><mxCell id="MoqQ8B__wV_kR4h6qOrr-3" style="edgeStyle=orthogonalEdgeStyle;rounded=0;orthogonalLoop=1;jettySize=auto;html=1;exitX=0.5;exitY=0;exitDx=0;exitDy=0;entryX=0.5;entryY=1;entryDx=0;entryDy=0;startArrow=block;startFill=1;" parent="fliY7O6b74fp147CvZl_-1" source="MoqQ8B__wV_kR4h6qOrr-0" target="4Ju82PzuPKSqArWyWa0W-31" edge="1"><mxGeometry relative="1" as="geometry"/></mxCell><mxCell id="MoqQ8B__wV_kR4h6qOrr-0" value="&lt;font style=&quot;font-size: 14px&quot;&gt;Service B&lt;/font&gt;" style="rounded=0;whiteSpace=wrap;html=1;fillColor=#f8cecc;strokeColor=#b85450;" parent="fliY7O6b74fp147CvZl_-1" vertex="1"><mxGeometry x="660" y="570" width="120" height="60" as="geometry"/></mxCell><mxCell id="dGJKna9MtAyuTHaSWicG-0" value="" style="shape=image;html=1;verticalAlign=top;verticalLabelPosition=bottom;labelBackgroundColor=#ffffff;imageAspect=0;aspect=fixed;image=https://cdn3.iconfinder.com/data/icons/dompicon-glyph-file-format-2/256/file-csr-format-type-128.png" parent="fliY7O6b74fp147CvZl_-1" vertex="1"><mxGeometry x="425" y="300" width="40" height="40" as="geometry"/></mxCell></root></mxGraphModel></diagram><diagram name="Istio" id="Rzn6Sl9NuGLtMh5HtDPn"><mxGraphModel dx="883" dy="558" grid="1" gridSize="10" guides="1" tooltips="1" connect="1" arrows="1" fold="1" page="1" pageScale="1" pageWidth="850" pageHeight="1100" math="0" shadow="0"><root><mxCell id="Hfxllz4FOc4Rg0UaSEuQ-0"/><mxCell id="Hfxllz4FOc4Rg0UaSEuQ-1" parent="Hfxllz4FOc4Rg0UaSEuQ-0"/><mxCell id="Hfxllz4FOc4Rg0UaSEuQ-2" value="" style="rounded=0;whiteSpace=wrap;html=1;" parent="Hfxllz4FOc4Rg0UaSEuQ-1" vertex="1"><mxGeometry x="25" y="10" width="800" height="660" as="geometry"/></mxCell><mxCell id="Hfxllz4FOc4Rg0UaSEuQ-4" value="" style="rounded=0;whiteSpace=wrap;html=1;fillColor=#f5f5f5;strokeColor=#666666;fontColor=#333333;" parent="Hfxllz4FOc4Rg0UaSEuQ-1" vertex="1"><mxGeometry x="40" y="340" width="780" height="320" as="geometry"/></mxCell><mxCell id="Hfxllz4FOc4Rg0UaSEuQ-6" value="" style="rounded=0;whiteSpace=wrap;html=1;fillColor=#fff2cc;strokeColor=#d6b656;" parent="Hfxllz4FOc4Rg0UaSEuQ-1" vertex="1"><mxGeometry x="640" y="360" width="160" height="280" as="geometry"/></mxCell><mxCell id="Hfxllz4FOc4Rg0UaSEuQ-7" value="" style="rounded=0;whiteSpace=wrap;html=1;fillColor=#fff2cc;strokeColor=#d6b656;" parent="Hfxllz4FOc4Rg0UaSEuQ-1" vertex="1"><mxGeometry x="60" y="360" width="160" height="280" as="geometry"/></mxCell><mxCell id="Hfxllz4FOc4Rg0UaSEuQ-13" value="&lt;font style=&quot;font-size: 14px&quot;&gt;Istio Agent A&lt;br&gt;&lt;/font&gt;" style="rounded=0;whiteSpace=wrap;html=1;fillColor=#dae8fc;strokeColor=#6c8ebf;" parent="Hfxllz4FOc4Rg0UaSEuQ-1" vertex="1"><mxGeometry x="80" y="370" width="120" height="60" as="geometry"/></mxCell><mxCell id="Hfxllz4FOc4Rg0UaSEuQ-17" value="&lt;div style=&quot;font-size: 14px&quot;&gt;&lt;font style=&quot;font-size: 14px&quot;&gt;Istio Agent B&lt;br&gt;&lt;/font&gt;&lt;/div&gt;" style="rounded=0;whiteSpace=wrap;html=1;fillColor=#dae8fc;strokeColor=#6c8ebf;" parent="Hfxllz4FOc4Rg0UaSEuQ-1" vertex="1"><mxGeometry x="660" y="370" width="120" height="60" as="geometry"/></mxCell><mxCell id="Hfxllz4FOc4Rg0UaSEuQ-19" value="&lt;font style=&quot;font-size: 14px&quot;&gt;SDS&lt;/font&gt;" style="edgeStyle=orthogonalEdgeStyle;rounded=0;orthogonalLoop=1;jettySize=auto;html=1;entryX=0.5;entryY=1;entryDx=0;entryDy=0;exitX=0.5;exitY=0;exitDx=0;exitDy=0;" parent="Hfxllz4FOc4Rg0UaSEuQ-1" source="Hfxllz4FOc4Rg0UaSEuQ-20" target="Hfxllz4FOc4Rg0UaSEuQ-17" edge="1"><mxGeometry relative="1" as="geometry"/></mxCell><mxCell id="Hfxllz4FOc4Rg0UaSEuQ-20" value="&lt;div style=&quot;font-size: 14px&quot;&gt;&lt;font style=&quot;font-size: 14px&quot;&gt;Envoy B&lt;br&gt;&lt;/font&gt;&lt;/div&gt;" style="rounded=0;whiteSpace=wrap;html=1;fillColor=#dae8fc;strokeColor=#6c8ebf;" parent="Hfxllz4FOc4Rg0UaSEuQ-1" vertex="1"><mxGeometry x="660" y="480" width="120" height="60" as="geometry"/></mxCell><mxCell id="Hfxllz4FOc4Rg0UaSEuQ-21" value="&lt;font style=&quot;font-size: 14px&quot;&gt;SDS&lt;/font&gt;" style="edgeStyle=orthogonalEdgeStyle;rounded=0;orthogonalLoop=1;jettySize=auto;html=1;exitX=0.5;exitY=0;exitDx=0;exitDy=0;entryX=0.5;entryY=1;entryDx=0;entryDy=0;" parent="Hfxllz4FOc4Rg0UaSEuQ-1" source="Hfxllz4FOc4Rg0UaSEuQ-25" target="Hfxllz4FOc4Rg0UaSEuQ-13" edge="1"><mxGeometry relative="1" as="geometry"/></mxCell><mxCell id="Hfxllz4FOc4Rg0UaSEuQ-22" style="edgeStyle=orthogonalEdgeStyle;rounded=0;orthogonalLoop=1;jettySize=auto;html=1;exitX=1;exitY=0.5;exitDx=0;exitDy=0;entryX=0;entryY=0.5;entryDx=0;entryDy=0;startArrow=classic;startFill=1;fillColor=#f8cecc;strokeColor=#b85450;strokeWidth=2;" parent="Hfxllz4FOc4Rg0UaSEuQ-1" source="Hfxllz4FOc4Rg0UaSEuQ-25" target="Hfxllz4FOc4Rg0UaSEuQ-20" edge="1"><mxGeometry relative="1" as="geometry"/></mxCell><mxCell id="Hfxllz4FOc4Rg0UaSEuQ-23" value="mTLS" style="edgeLabel;html=1;align=center;verticalAlign=middle;resizable=0;points=[];fontSize=14;" parent="Hfxllz4FOc4Rg0UaSEuQ-22" vertex="1" connectable="0"><mxGeometry x="-0.1286" y="-1" relative="1" as="geometry"><mxPoint as="offset"/></mxGeometry></mxCell><mxCell id="Hfxllz4FOc4Rg0UaSEuQ-25" value="&lt;div style=&quot;font-size: 14px&quot;&gt;&lt;font style=&quot;font-size: 14px&quot;&gt;Envoy A&lt;br&gt;&lt;/font&gt;&lt;/div&gt;" style="rounded=0;whiteSpace=wrap;html=1;fillColor=#dae8fc;strokeColor=#6c8ebf;" parent="Hfxllz4FOc4Rg0UaSEuQ-1" vertex="1"><mxGeometry x="80" y="480" width="120" height="60" as="geometry"/></mxCell><mxCell id="Hfxllz4FOc4Rg0UaSEuQ-26" value="Node" style="text;html=1;strokeColor=#666666;fillColor=#f5f5f5;align=center;verticalAlign=middle;whiteSpace=wrap;rounded=0;fontSize=14;fontColor=#333333;" parent="Hfxllz4FOc4Rg0UaSEuQ-1" vertex="1"><mxGeometry x="70" y="30" width="70" height="20" as="geometry"/></mxCell><mxCell id="Hfxllz4FOc4Rg0UaSEuQ-27" value="Pod" style="text;html=1;strokeColor=#d6b656;fillColor=#fff2cc;align=center;verticalAlign=middle;whiteSpace=wrap;rounded=0;fontSize=14;" parent="Hfxllz4FOc4Rg0UaSEuQ-1" vertex="1"><mxGeometry x="70" y="60" width="70" height="20" as="geometry"/></mxCell><mxCell id="Hfxllz4FOc4Rg0UaSEuQ-28" value="" style="edgeStyle=orthogonalEdgeStyle;rounded=0;orthogonalLoop=1;jettySize=auto;html=1;startArrow=classic;startFill=1;" parent="Hfxllz4FOc4Rg0UaSEuQ-1" source="Hfxllz4FOc4Rg0UaSEuQ-29" target="Hfxllz4FOc4Rg0UaSEuQ-20" edge="1"><mxGeometry relative="1" as="geometry"/></mxCell><mxCell id="Hfxllz4FOc4Rg0UaSEuQ-29" value="&lt;font style=&quot;font-size: 14px&quot;&gt;Service B&lt;/font&gt;" style="rounded=0;whiteSpace=wrap;html=1;fillColor=#f8cecc;strokeColor=#b85450;" parent="Hfxllz4FOc4Rg0UaSEuQ-1" vertex="1"><mxGeometry x="660" y="570" width="120" height="60" as="geometry"/></mxCell><mxCell id="Hfxllz4FOc4Rg0UaSEuQ-30" style="edgeStyle=orthogonalEdgeStyle;rounded=0;orthogonalLoop=1;jettySize=auto;html=1;exitX=0.5;exitY=1;exitDx=0;exitDy=0;" parent="Hfxllz4FOc4Rg0UaSEuQ-1" edge="1"><mxGeometry relative="1" as="geometry"><mxPoint x="135" y="110" as="sourcePoint"/><mxPoint x="135" y="110" as="targetPoint"/></mxGeometry></mxCell><mxCell id="Hfxllz4FOc4Rg0UaSEuQ-31" value="Istio Component" style="text;html=1;strokeColor=#6c8ebf;fillColor=#dae8fc;align=center;verticalAlign=middle;whiteSpace=wrap;rounded=0;fontSize=14;" parent="Hfxllz4FOc4Rg0UaSEuQ-1" vertex="1"><mxGeometry x="70" y="90" width="130" height="20" as="geometry"/></mxCell><mxCell id="Hfxllz4FOc4Rg0UaSEuQ-32" value="" style="edgeStyle=orthogonalEdgeStyle;rounded=0;orthogonalLoop=1;jettySize=auto;html=1;startArrow=classic;startFill=1;" parent="Hfxllz4FOc4Rg0UaSEuQ-1" source="Hfxllz4FOc4Rg0UaSEuQ-33" target="Hfxllz4FOc4Rg0UaSEuQ-25" edge="1"><mxGeometry relative="1" as="geometry"/></mxCell><mxCell id="Hfxllz4FOc4Rg0UaSEuQ-33" value="&lt;font style=&quot;font-size: 14px&quot;&gt;Service A &lt;br&gt;&lt;/font&gt;" style="rounded=0;whiteSpace=wrap;html=1;fillColor=#f8cecc;strokeColor=#b85450;" parent="Hfxllz4FOc4Rg0UaSEuQ-1" vertex="1"><mxGeometry x="80" y="570" width="120" height="60" as="geometry"/></mxCell><mxCell id="Hfxllz4FOc4Rg0UaSEuQ-34" value="" style="shape=image;html=1;verticalAlign=top;verticalLabelPosition=bottom;labelBackgroundColor=#ffffff;imageAspect=0;aspect=fixed;image=https://cdn3.iconfinder.com/data/icons/dompicon-glyph-file-format-2/256/file-csr-format-type-128.png" parent="Hfxllz4FOc4Rg0UaSEuQ-1" vertex="1"><mxGeometry x="240" y="190" width="40" height="40" as="geometry"/></mxCell><mxCell id="Hfxllz4FOc4Rg0UaSEuQ-36" value="" style="shape=image;html=1;verticalAlign=top;verticalLabelPosition=bottom;labelBackgroundColor=#ffffff;imageAspect=0;aspect=fixed;image=https://cdn3.iconfinder.com/data/icons/dompicon-glyph-file-format-2/256/file-csr-format-type-128.png" parent="Hfxllz4FOc4Rg0UaSEuQ-1" vertex="1"><mxGeometry x="560" y="190" width="40" height="40" as="geometry"/></mxCell><mxCell id="jEAeKIDrSMx4gBvYW1kJ-6" value="" style="endArrow=none;dashed=1;html=1;strokeColor=#6c8ebf;strokeWidth=3;fillColor=#dae8fc;fontColor=#66B2FF;" parent="Hfxllz4FOc4Rg0UaSEuQ-1" edge="1"><mxGeometry width="50" height="50" relative="1" as="geometry"><mxPoint x="610" y="70" as="sourcePoint"/><mxPoint x="760" y="70" as="targetPoint"/></mxGeometry></mxCell><mxCell id="jEAeKIDrSMx4gBvYW1kJ-7" value="&lt;font style=&quot;font-size: 14px&quot;&gt;Control plane traffic&lt;/font&gt;" style="edgeLabel;html=1;align=center;verticalAlign=middle;resizable=0;points=[];" parent="jEAeKIDrSMx4gBvYW1kJ-6" vertex="1" connectable="0"><mxGeometry x="0.1111" y="-2" relative="1" as="geometry"><mxPoint x="-10" y="-22" as="offset"/></mxGeometry></mxCell><mxCell id="jEAeKIDrSMx4gBvYW1kJ-10" value="" style="endArrow=none;html=1;strokeColor=#b85450;strokeWidth=3;fillColor=#f8cecc;fontColor=#66B2FF;" parent="Hfxllz4FOc4Rg0UaSEuQ-1" edge="1"><mxGeometry width="50" height="50" relative="1" as="geometry"><mxPoint x="610" y="169.5" as="sourcePoint"/><mxPoint x="760" y="169.5" as="targetPoint"/></mxGeometry></mxCell><mxCell id="jEAeKIDrSMx4gBvYW1kJ-11" value="&lt;font style=&quot;font-size: 14px&quot;&gt;Mesh traffic&lt;/font&gt;" style="edgeLabel;html=1;align=center;verticalAlign=middle;resizable=0;points=[];" parent="jEAeKIDrSMx4gBvYW1kJ-10" vertex="1" connectable="0"><mxGeometry x="0.1111" y="-2" relative="1" as="geometry"><mxPoint x="-10" y="-22" as="offset"/></mxGeometry></mxCell><mxCell id="pANGyAXg2ZNTvridel62-0" value="" style="rounded=0;whiteSpace=wrap;html=1;fillColor=#f5f5f5;strokeColor=#666666;fontColor=#333333;" parent="Hfxllz4FOc4Rg0UaSEuQ-1" vertex="1"><mxGeometry x="320" y="130" width="200" height="170" as="geometry"/></mxCell><mxCell id="pANGyAXg2ZNTvridel62-1" value="" style="rounded=0;whiteSpace=wrap;html=1;fillColor=#fff2cc;strokeColor=#d6b656;" parent="Hfxllz4FOc4Rg0UaSEuQ-1" vertex="1"><mxGeometry x="340" y="150" width="160" height="130" as="geometry"/></mxCell><mxCell id="pANGyAXg2ZNTvridel62-2" value="&lt;br&gt;&lt;br&gt;&lt;br&gt;Istiod" style="rounded=0;whiteSpace=wrap;html=1;fillColor=#dae8fc;strokeColor=#6c8ebf;fontSize=14;" parent="Hfxllz4FOc4Rg0UaSEuQ-1" vertex="1"><mxGeometry x="360" y="170" width="120" height="90" as="geometry"/></mxCell><mxCell id="pANGyAXg2ZNTvridel62-3" value="" style="aspect=fixed;perimeter=ellipsePerimeter;html=1;align=center;shadow=0;dashed=0;fontColor=#4277BB;labelBackgroundColor=#ffffff;fontSize=12;spacingTop=3;image;image=img/lib/ibm/blockchain/certificate_authority.svg;" parent="Hfxllz4FOc4Rg0UaSEuQ-1" vertex="1"><mxGeometry x="400" y="180" width="40" height="40" as="geometry"/></mxCell><mxCell id="Hfxllz4FOc4Rg0UaSEuQ-15" style="edgeStyle=orthogonalEdgeStyle;orthogonalLoop=1;jettySize=auto;html=1;startArrow=none;startFill=0;fillColor=#1ba1e2;strokeColor=#006EAF;entryX=1;entryY=0.5;entryDx=0;entryDy=0;exitX=0.5;exitY=0;exitDx=0;exitDy=0;rounded=0;dashed=1;strokeWidth=2;" parent="Hfxllz4FOc4Rg0UaSEuQ-1" source="Hfxllz4FOc4Rg0UaSEuQ-17" target="pANGyAXg2ZNTvridel62-2" edge="1"><mxGeometry relative="1" as="geometry"><mxPoint x="658" y="410" as="sourcePoint"/><mxPoint x="480" y="227.5" as="targetPoint"/></mxGeometry></mxCell><mxCell id="Hfxllz4FOc4Rg0UaSEuQ-16" value="CSR API" style="edgeLabel;html=1;align=center;verticalAlign=middle;resizable=0;points=[];fontSize=14;" parent="Hfxllz4FOc4Rg0UaSEuQ-15" vertex="1" connectable="0"><mxGeometry x="-0.2232" y="-2" relative="1" as="geometry"><mxPoint x="-2" y="63" as="offset"/></mxGeometry></mxCell><mxCell id="Hfxllz4FOc4Rg0UaSEuQ-11" style="edgeStyle=orthogonalEdgeStyle;rounded=0;orthogonalLoop=1;jettySize=auto;html=1;entryX=0;entryY=0.5;entryDx=0;entryDy=0;startArrow=none;startFill=0;exitX=0.5;exitY=0;exitDx=0;exitDy=0;fillColor=#1ba1e2;strokeColor=#006EAF;strokeWidth=2;dashed=1;" parent="Hfxllz4FOc4Rg0UaSEuQ-1" source="Hfxllz4FOc4Rg0UaSEuQ-13" target="pANGyAXg2ZNTvridel62-2" edge="1"><mxGeometry relative="1" as="geometry"><mxPoint x="360" y="227.5" as="targetPoint"/></mxGeometry></mxCell><mxCell id="Hfxllz4FOc4Rg0UaSEuQ-12" value="CSR API" style="edgeLabel;html=1;align=center;verticalAlign=middle;resizable=0;points=[];fontSize=14;" parent="Hfxllz4FOc4Rg0UaSEuQ-11" vertex="1" connectable="0"><mxGeometry x="-0.1976" y="2" relative="1" as="geometry"><mxPoint x="-3" y="60" as="offset"/></mxGeometry></mxCell></root></mxGraphModel></diagram><diagram name="Mithril" id="uroO4yZ9FKbQ3iLUDdjh"><mxGraphModel dx="1106" dy="1134" grid="1" gridSize="10" guides="1" tooltips="1" connect="1" arrows="1" fold="1" page="1" pageScale="1" pageWidth="850" pageHeight="1100" math="0" shadow="0"><root><mxCell id="yR4Ug8oot1Q8L2bwDMMn-0"/><mxCell id="yR4Ug8oot1Q8L2bwDMMn-1" parent="yR4Ug8oot1Q8L2bwDMMn-0"/><mxCell id="yR4Ug8oot1Q8L2bwDMMn-2" value="" style="rounded=0;whiteSpace=wrap;html=1;" parent="yR4Ug8oot1Q8L2bwDMMn-1" vertex="1"><mxGeometry x="30" y="10" width="800" height="660" as="geometry"/></mxCell><mxCell id="yR4Ug8oot1Q8L2bwDMMn-3" value="" style="rounded=0;whiteSpace=wrap;html=1;fillColor=#f5f5f5;strokeColor=#666666;fontColor=#333333;" parent="yR4Ug8oot1Q8L2bwDMMn-1" vertex="1"><mxGeometry x="320" y="30" width="200" height="260" as="geometry"/></mxCell><mxCell id="yR4Ug8oot1Q8L2bwDMMn-4" value="" style="rounded=0;whiteSpace=wrap;html=1;fillColor=#f5f5f5;strokeColor=#666666;fontColor=#333333;" parent="yR4Ug8oot1Q8L2bwDMMn-1" vertex="1"><mxGeometry x="40" y="340" width="780" height="320" as="geometry"/></mxCell><mxCell id="yR4Ug8oot1Q8L2bwDMMn-5" value="" style="rounded=0;whiteSpace=wrap;html=1;fillColor=#fff2cc;strokeColor=#d6b656;" parent="yR4Ug8oot1Q8L2bwDMMn-1" vertex="1"><mxGeometry x="340" y="170" width="160" height="100" as="geometry"/></mxCell><mxCell id="yR4Ug8oot1Q8L2bwDMMn-6" value="" style="rounded=0;whiteSpace=wrap;html=1;fillColor=#fff2cc;strokeColor=#d6b656;" parent="yR4Ug8oot1Q8L2bwDMMn-1" vertex="1"><mxGeometry x="640" y="360" width="160" height="280" as="geometry"/></mxCell><mxCell id="yR4Ug8oot1Q8L2bwDMMn-7" value="" style="rounded=0;whiteSpace=wrap;html=1;fillColor=#fff2cc;strokeColor=#d6b656;" parent="yR4Ug8oot1Q8L2bwDMMn-1" vertex="1"><mxGeometry x="60" y="360" width="160" height="280" as="geometry"/></mxCell><mxCell id="yR4Ug8oot1Q8L2bwDMMn-8" value="&lt;div style=&quot;font-size: 15px&quot;&gt;&lt;font style=&quot;font-size: 15px&quot;&gt;SPIRE Agent&lt;/font&gt;&lt;/div&gt;" style="rounded=0;whiteSpace=wrap;html=1;fillColor=#d5e8d4;strokeColor=#82b366;fontStyle=0" parent="yR4Ug8oot1Q8L2bwDMMn-1" vertex="1"><mxGeometry x="360" y="370" width="120" height="60" as="geometry"/></mxCell><mxCell id="yR4Ug8oot1Q8L2bwDMMn-9" style="edgeStyle=orthogonalEdgeStyle;rounded=0;orthogonalLoop=1;jettySize=auto;html=1;startArrow=none;startFill=0;fontSize=14;fillColor=#d5e8d4;strokeColor=#82b366;entryX=0.5;entryY=1;entryDx=0;entryDy=0;dashed=1;strokeWidth=2;" parent="yR4Ug8oot1Q8L2bwDMMn-1" source="yR4Ug8oot1Q8L2bwDMMn-11" target="yR4Ug8oot1Q8L2bwDMMn-29" edge="1"><mxGeometry relative="1" as="geometry"><mxPoint x="420" y="130" as="targetPoint"/></mxGeometry></mxCell><mxCell id="yR4Ug8oot1Q8L2bwDMMn-10" value="Fetch Identities" style="edgeLabel;html=1;align=center;verticalAlign=middle;resizable=0;points=[];fontSize=14;" parent="yR4Ug8oot1Q8L2bwDMMn-9" vertex="1" connectable="0"><mxGeometry x="-0.125" relative="1" as="geometry"><mxPoint as="offset"/></mxGeometry></mxCell><mxCell id="yR4Ug8oot1Q8L2bwDMMn-11" value="&lt;font style=&quot;font-size: 15px&quot;&gt;Istiod&lt;/font&gt;" style="rounded=0;whiteSpace=wrap;html=1;fillColor=#dae8fc;strokeColor=#6c8ebf;fontSize=14;" parent="yR4Ug8oot1Q8L2bwDMMn-1" vertex="1"><mxGeometry x="360" y="190" width="120" height="60" as="geometry"/></mxCell><mxCell id="yR4Ug8oot1Q8L2bwDMMn-14" style="edgeStyle=orthogonalEdgeStyle;rounded=0;orthogonalLoop=1;jettySize=auto;html=1;entryX=0;entryY=0.5;entryDx=0;entryDy=0;startArrow=none;startFill=0;exitX=1;exitY=0.5;exitDx=0;exitDy=0;fillColor=#d5e8d4;strokeColor=#82b366;dashed=1;fontSize=14;strokeWidth=2;" parent="yR4Ug8oot1Q8L2bwDMMn-1" source="yR4Ug8oot1Q8L2bwDMMn-16" target="yR4Ug8oot1Q8L2bwDMMn-8" edge="1"><mxGeometry relative="1" as="geometry"/></mxCell><mxCell id="yR4Ug8oot1Q8L2bwDMMn-15" value="Fetch Identities" style="edgeLabel;html=1;align=center;verticalAlign=middle;resizable=0;points=[];fontSize=14;" parent="yR4Ug8oot1Q8L2bwDMMn-14" vertex="1" connectable="0"><mxGeometry x="-0.1976" y="2" relative="1" as="geometry"><mxPoint x="12" as="offset"/></mxGeometry></mxCell><mxCell id="yR4Ug8oot1Q8L2bwDMMn-16" value="&lt;font style=&quot;font-size: 14px&quot;&gt;Istio Agent A&lt;br&gt;&lt;/font&gt;" style="rounded=0;whiteSpace=wrap;html=1;fillColor=#dae8fc;strokeColor=#6c8ebf;" parent="yR4Ug8oot1Q8L2bwDMMn-1" vertex="1"><mxGeometry x="80" y="370" width="120" height="60" as="geometry"/></mxCell><mxCell id="yR4Ug8oot1Q8L2bwDMMn-18" style="edgeStyle=orthogonalEdgeStyle;rounded=0;orthogonalLoop=1;jettySize=auto;html=1;startArrow=none;startFill=0;fillColor=#d5e8d4;strokeColor=#82b366;entryX=1;entryY=0.5;entryDx=0;entryDy=0;dashed=1;fontSize=14;strokeWidth=2;" parent="yR4Ug8oot1Q8L2bwDMMn-1" source="yR4Ug8oot1Q8L2bwDMMn-20" target="yR4Ug8oot1Q8L2bwDMMn-8" edge="1"><mxGeometry relative="1" as="geometry"><mxPoint x="658" y="410" as="sourcePoint"/><mxPoint x="480" y="410" as="targetPoint"/></mxGeometry></mxCell><mxCell id="yR4Ug8oot1Q8L2bwDMMn-19" value="&lt;div style=&quot;font-size: 14px;&quot;&gt;Fetch Identities&lt;/div&gt;" style="edgeLabel;html=1;align=center;verticalAlign=middle;resizable=0;points=[];fontSize=14;" parent="yR4Ug8oot1Q8L2bwDMMn-18" vertex="1" connectable="0"><mxGeometry x="-0.2232" y="-2" relative="1" as="geometry"><mxPoint x="-15" as="offset"/></mxGeometry></mxCell><mxCell id="yR4Ug8oot1Q8L2bwDMMn-20" value="&lt;div style=&quot;font-size: 14px&quot;&gt;&lt;font style=&quot;font-size: 14px&quot;&gt;Istio Agent B&lt;br&gt;&lt;/font&gt;&lt;/div&gt;" style="rounded=0;whiteSpace=wrap;html=1;fillColor=#dae8fc;strokeColor=#6c8ebf;" parent="yR4Ug8oot1Q8L2bwDMMn-1" vertex="1"><mxGeometry x="660" y="370" width="120" height="60" as="geometry"/></mxCell><mxCell id="yR4Ug8oot1Q8L2bwDMMn-22" value="&lt;font style=&quot;font-size: 14px&quot;&gt;SDS&lt;/font&gt;" style="edgeStyle=orthogonalEdgeStyle;rounded=0;orthogonalLoop=1;jettySize=auto;html=1;entryX=0.5;entryY=1;entryDx=0;entryDy=0;exitX=0.5;exitY=0;exitDx=0;exitDy=0;" parent="yR4Ug8oot1Q8L2bwDMMn-1" source="yR4Ug8oot1Q8L2bwDMMn-23" target="yR4Ug8oot1Q8L2bwDMMn-20" edge="1"><mxGeometry relative="1" as="geometry"/></mxCell><mxCell id="yR4Ug8oot1Q8L2bwDMMn-23" value="&lt;div style=&quot;font-size: 14px&quot;&gt;&lt;font style=&quot;font-size: 14px&quot;&gt;Envoy B&lt;br&gt;&lt;/font&gt;&lt;/div&gt;" style="rounded=0;whiteSpace=wrap;html=1;fillColor=#dae8fc;strokeColor=#6c8ebf;" parent="yR4Ug8oot1Q8L2bwDMMn-1" vertex="1"><mxGeometry x="660" y="480" width="120" height="60" as="geometry"/></mxCell><mxCell id="yR4Ug8oot1Q8L2bwDMMn-24" value="&lt;font style=&quot;font-size: 14px&quot;&gt;SDS&lt;/font&gt;" style="edgeStyle=orthogonalEdgeStyle;rounded=0;orthogonalLoop=1;jettySize=auto;html=1;exitX=0.5;exitY=0;exitDx=0;exitDy=0;entryX=0.5;entryY=1;entryDx=0;entryDy=0;" parent="yR4Ug8oot1Q8L2bwDMMn-1" source="yR4Ug8oot1Q8L2bwDMMn-28" target="yR4Ug8oot1Q8L2bwDMMn-16" edge="1"><mxGeometry relative="1" as="geometry"/></mxCell><mxCell id="yR4Ug8oot1Q8L2bwDMMn-25" style="edgeStyle=orthogonalEdgeStyle;rounded=0;orthogonalLoop=1;jettySize=auto;html=1;exitX=1;exitY=0.5;exitDx=0;exitDy=0;entryX=0;entryY=0.5;entryDx=0;entryDy=0;startArrow=classic;startFill=1;fillColor=#f8cecc;strokeColor=#b85450;" parent="yR4Ug8oot1Q8L2bwDMMn-1" source="yR4Ug8oot1Q8L2bwDMMn-28" target="yR4Ug8oot1Q8L2bwDMMn-23" edge="1"><mxGeometry relative="1" as="geometry"/></mxCell><mxCell id="yR4Ug8oot1Q8L2bwDMMn-26" value="mTLS" style="edgeLabel;html=1;align=center;verticalAlign=middle;resizable=0;points=[];fontSize=14;" parent="yR4Ug8oot1Q8L2bwDMMn-25" vertex="1" connectable="0"><mxGeometry x="-0.1286" y="-1" relative="1" as="geometry"><mxPoint as="offset"/></mxGeometry></mxCell><mxCell id="yR4Ug8oot1Q8L2bwDMMn-28" value="&lt;div style=&quot;font-size: 14px&quot;&gt;&lt;font style=&quot;font-size: 14px&quot;&gt;Envoy A&lt;br&gt;&lt;/font&gt;&lt;/div&gt;" style="rounded=0;whiteSpace=wrap;html=1;fillColor=#dae8fc;strokeColor=#6c8ebf;" parent="yR4Ug8oot1Q8L2bwDMMn-1" vertex="1"><mxGeometry x="80" y="480" width="120" height="60" as="geometry"/></mxCell><mxCell id="yR4Ug8oot1Q8L2bwDMMn-29" value="&lt;div style=&quot;font-size: 15px&quot;&gt;&lt;font style=&quot;font-size: 15px&quot;&gt;SPIRE Agent&lt;/font&gt;&lt;/div&gt;" style="rounded=0;whiteSpace=wrap;html=1;fillColor=#d5e8d4;strokeColor=#82b366;fontStyle=0" parent="yR4Ug8oot1Q8L2bwDMMn-1" vertex="1"><mxGeometry x="360" y="50" width="120" height="60" as="geometry"/></mxCell><mxCell id="yR4Ug8oot1Q8L2bwDMMn-30" value="Node" style="text;html=1;strokeColor=#666666;fillColor=#f5f5f5;align=center;verticalAlign=middle;whiteSpace=wrap;rounded=0;fontSize=14;fontColor=#333333;" parent="yR4Ug8oot1Q8L2bwDMMn-1" vertex="1"><mxGeometry x="70" y="30" width="70" height="20" as="geometry"/></mxCell><mxCell id="yR4Ug8oot1Q8L2bwDMMn-31" value="Pod" style="text;html=1;strokeColor=#d6b656;fillColor=#fff2cc;align=center;verticalAlign=middle;whiteSpace=wrap;rounded=0;fontSize=14;" parent="yR4Ug8oot1Q8L2bwDMMn-1" vertex="1"><mxGeometry x="70" y="60" width="70" height="20" as="geometry"/></mxCell><mxCell id="yR4Ug8oot1Q8L2bwDMMn-32" value="" style="edgeStyle=orthogonalEdgeStyle;rounded=0;orthogonalLoop=1;jettySize=auto;html=1;startArrow=classic;startFill=1;" parent="yR4Ug8oot1Q8L2bwDMMn-1" source="yR4Ug8oot1Q8L2bwDMMn-33" target="yR4Ug8oot1Q8L2bwDMMn-23" edge="1"><mxGeometry relative="1" as="geometry"/></mxCell><mxCell id="yR4Ug8oot1Q8L2bwDMMn-33" value="&lt;font style=&quot;font-size: 14px&quot;&gt;Service B&lt;/font&gt;" style="rounded=0;whiteSpace=wrap;html=1;fillColor=#f8cecc;strokeColor=#b85450;" parent="yR4Ug8oot1Q8L2bwDMMn-1" vertex="1"><mxGeometry x="660" y="570" width="120" height="60" as="geometry"/></mxCell><mxCell id="yR4Ug8oot1Q8L2bwDMMn-34" value="SPIRE Component" style="text;html=1;strokeColor=#82b366;fillColor=#d5e8d4;align=center;verticalAlign=middle;whiteSpace=wrap;rounded=0;fontSize=14;" parent="yR4Ug8oot1Q8L2bwDMMn-1" vertex="1"><mxGeometry x="70" y="90" width="130" height="20" as="geometry"/></mxCell><mxCell id="yR4Ug8oot1Q8L2bwDMMn-35" style="edgeStyle=orthogonalEdgeStyle;rounded=0;orthogonalLoop=1;jettySize=auto;html=1;exitX=0.5;exitY=1;exitDx=0;exitDy=0;" parent="yR4Ug8oot1Q8L2bwDMMn-1" source="yR4Ug8oot1Q8L2bwDMMn-34" target="yR4Ug8oot1Q8L2bwDMMn-34" edge="1"><mxGeometry relative="1" as="geometry"/></mxCell><mxCell id="yR4Ug8oot1Q8L2bwDMMn-36" value="Istio Component" style="text;html=1;strokeColor=#6c8ebf;fillColor=#dae8fc;align=center;verticalAlign=middle;whiteSpace=wrap;rounded=0;fontSize=14;" parent="yR4Ug8oot1Q8L2bwDMMn-1" vertex="1"><mxGeometry x="70" y="120" width="130" height="20" as="geometry"/></mxCell><mxCell id="yR4Ug8oot1Q8L2bwDMMn-37" value="" style="edgeStyle=orthogonalEdgeStyle;rounded=0;orthogonalLoop=1;jettySize=auto;html=1;startArrow=classic;startFill=1;" parent="yR4Ug8oot1Q8L2bwDMMn-1" source="yR4Ug8oot1Q8L2bwDMMn-38" target="yR4Ug8oot1Q8L2bwDMMn-28" edge="1"><mxGeometry relative="1" as="geometry"/></mxCell><mxCell id="yR4Ug8oot1Q8L2bwDMMn-38" value="&lt;font style=&quot;font-size: 14px&quot;&gt;Service A &lt;br&gt;&lt;/font&gt;" style="rounded=0;whiteSpace=wrap;html=1;fillColor=#f8cecc;strokeColor=#b85450;" parent="yR4Ug8oot1Q8L2bwDMMn-1" vertex="1"><mxGeometry x="80" y="570" width="120" height="60" as="geometry"/></mxCell><mxCell id="yR4Ug8oot1Q8L2bwDMMn-41" value="" style="endArrow=none;dashed=1;html=1;strokeColor=#82b366;strokeWidth=3;fillColor=#d5e8d4;fontColor=#66B2FF;" parent="yR4Ug8oot1Q8L2bwDMMn-1" edge="1"><mxGeometry width="50" height="50" relative="1" as="geometry"><mxPoint x="600" y="109" as="sourcePoint"/><mxPoint x="750" y="109" as="targetPoint"/></mxGeometry></mxCell><mxCell id="yR4Ug8oot1Q8L2bwDMMn-42" value="&lt;font style=&quot;font-size: 14px&quot;&gt;Identity plane traffic&lt;/font&gt;" style="edgeLabel;html=1;align=center;verticalAlign=middle;resizable=0;points=[];" parent="yR4Ug8oot1Q8L2bwDMMn-41" vertex="1" connectable="0"><mxGeometry x="0.1111" y="-2" relative="1" as="geometry"><mxPoint x="-10" y="-22" as="offset"/></mxGeometry></mxCell><mxCell id="yR4Ug8oot1Q8L2bwDMMn-43" value="" style="endArrow=none;html=1;strokeColor=#b85450;strokeWidth=3;fillColor=#f8cecc;fontColor=#66B2FF;" parent="yR4Ug8oot1Q8L2bwDMMn-1" edge="1"><mxGeometry width="50" height="50" relative="1" as="geometry"><mxPoint x="600" y="159.5" as="sourcePoint"/><mxPoint x="750" y="159.5" as="targetPoint"/></mxGeometry></mxCell><mxCell id="yR4Ug8oot1Q8L2bwDMMn-44" value="&lt;font style=&quot;font-size: 14px&quot;&gt;Mesh traffic&lt;/font&gt;" style="edgeLabel;html=1;align=center;verticalAlign=middle;resizable=0;points=[];" parent="yR4Ug8oot1Q8L2bwDMMn-43" vertex="1" connectable="0"><mxGeometry x="0.1111" y="-2" relative="1" as="geometry"><mxPoint x="-10" y="-22" as="offset"/></mxGeometry></mxCell><mxCell id="DRhnJJhDdyw6qoS6wxiY-0" value="&lt;br&gt;&lt;br&gt;&lt;br&gt;SPIRE Server" style="rounded=0;whiteSpace=wrap;html=1;fillColor=#d5e8d4;strokeColor=#82b366;fontSize=14;" parent="yR4Ug8oot1Q8L2bwDMMn-1" vertex="1"><mxGeometry x="70" y="175" width="120" height="90" as="geometry"/></mxCell><mxCell id="KiN1ZO9pY3Msjz51l4tq-0" value="" style="aspect=fixed;perimeter=ellipsePerimeter;html=1;align=center;shadow=0;dashed=0;fontColor=#4277BB;labelBackgroundColor=#ffffff;fontSize=12;spacingTop=3;image;image=img/lib/ibm/blockchain/certificate_authority.svg;" parent="yR4Ug8oot1Q8L2bwDMMn-1" vertex="1"><mxGeometry x="110" y="190" width="40" height="40" as="geometry"/></mxCell></root></mxGraphModel></diagram><diagram id="nusi7aoPp_d3XSAY3VtE" name="istio-citadel-old"><mxGraphModel dx="870" dy="582" grid="1" gridSize="10" guides="1" tooltips="1" connect="1" arrows="1" fold="1" page="1" pageScale="1" pageWidth="850" pageHeight="1100" math="0" shadow="0"><root><mxCell id="o6x-bZwLUevfCQAX-Tia-0"/><mxCell id="o6x-bZwLUevfCQAX-Tia-1" parent="o6x-bZwLUevfCQAX-Tia-0"/><mxCell id="Xm_BvtUpJ0Q0_MLHVvn_-0" value="" style="rounded=0;whiteSpace=wrap;html=1;" parent="o6x-bZwLUevfCQAX-Tia-1" vertex="1"><mxGeometry x="30" y="10" width="800" height="660" as="geometry"/></mxCell><mxCell id="2pr-cq2XwRSKHlOQ0C3z-0" value="" style="rounded=0;whiteSpace=wrap;html=1;fillColor=#f5f5f5;strokeColor=#666666;fontColor=#333333;" parent="o6x-bZwLUevfCQAX-Tia-1" vertex="1"><mxGeometry x="320" y="120" width="200" height="170" as="geometry"/></mxCell><mxCell id="2pr-cq2XwRSKHlOQ0C3z-1" value="" style="rounded=0;whiteSpace=wrap;html=1;fillColor=#f5f5f5;strokeColor=#666666;fontColor=#333333;" parent="o6x-bZwLUevfCQAX-Tia-1" vertex="1"><mxGeometry x="40" y="340" width="780" height="320" as="geometry"/></mxCell><mxCell id="2pr-cq2XwRSKHlOQ0C3z-2" value="" style="rounded=0;whiteSpace=wrap;html=1;fillColor=#fff2cc;strokeColor=#d6b656;" parent="o6x-bZwLUevfCQAX-Tia-1" vertex="1"><mxGeometry x="340" y="140" width="160" height="130" as="geometry"/></mxCell><mxCell id="2pr-cq2XwRSKHlOQ0C3z-3" value="" style="rounded=0;whiteSpace=wrap;html=1;fillColor=#fff2cc;strokeColor=#d6b656;" parent="o6x-bZwLUevfCQAX-Tia-1" vertex="1"><mxGeometry x="640" y="360" width="160" height="280" as="geometry"/></mxCell><mxCell id="2pr-cq2XwRSKHlOQ0C3z-4" value="" style="rounded=0;whiteSpace=wrap;html=1;fillColor=#fff2cc;strokeColor=#d6b656;" parent="o6x-bZwLUevfCQAX-Tia-1" vertex="1"><mxGeometry x="60" y="360" width="160" height="280" as="geometry"/></mxCell><mxCell id="2pr-cq2XwRSKHlOQ0C3z-8" value="&lt;br&gt;&lt;div&gt;&lt;font style=&quot;font-size: 15px&quot;&gt;&lt;br&gt;&lt;/font&gt;&lt;/div&gt;&lt;div&gt;&lt;font style=&quot;font-size: 15px&quot;&gt;&lt;br&gt;&lt;/font&gt;&lt;/div&gt;&lt;div&gt;&lt;font style=&quot;font-size: 15px&quot;&gt;istiod&lt;/font&gt;&lt;/div&gt;" style="rounded=0;whiteSpace=wrap;html=1;fillColor=#dae8fc;strokeColor=#6c8ebf;fontSize=14;" parent="o6x-bZwLUevfCQAX-Tia-1" vertex="1"><mxGeometry x="360" y="160" width="120" height="90" as="geometry"/></mxCell><mxCell id="2pr-cq2XwRSKHlOQ0C3z-9" style="edgeStyle=orthogonalEdgeStyle;rounded=0;orthogonalLoop=1;jettySize=auto;html=1;exitX=0.75;exitY=0;exitDx=0;exitDy=0;entryX=0.342;entryY=1.017;entryDx=0;entryDy=0;entryPerimeter=0;startArrow=none;startFill=0;fillColor=#1ba1e2;strokeColor=#006EAF;fontSize=14;strokeWidth=2;dashed=1;" parent="o6x-bZwLUevfCQAX-Tia-1" source="2pr-cq2XwRSKHlOQ0C3z-13" target="2pr-cq2XwRSKHlOQ0C3z-8" edge="1"><mxGeometry relative="1" as="geometry"/></mxCell><mxCell id="2pr-cq2XwRSKHlOQ0C3z-10" value="ADS" style="edgeLabel;html=1;align=center;verticalAlign=middle;resizable=0;points=[];fontSize=14;" parent="2pr-cq2XwRSKHlOQ0C3z-9" vertex="1" connectable="0"><mxGeometry x="0.1418" y="-2" relative="1" as="geometry"><mxPoint as="offset"/></mxGeometry></mxCell><mxCell id="2pr-cq2XwRSKHlOQ0C3z-11" style="edgeStyle=orthogonalEdgeStyle;rounded=0;orthogonalLoop=1;jettySize=auto;html=1;entryX=0;entryY=0.75;entryDx=0;entryDy=0;startArrow=none;startFill=0;exitX=0.192;exitY=0.017;exitDx=0;exitDy=0;fillColor=#1ba1e2;strokeColor=#006EAF;exitPerimeter=0;strokeWidth=2;dashed=1;" parent="o6x-bZwLUevfCQAX-Tia-1" source="2pr-cq2XwRSKHlOQ0C3z-13" target="2pr-cq2XwRSKHlOQ0C3z-8" edge="1"><mxGeometry relative="1" as="geometry"><mxPoint x="360" y="400" as="targetPoint"/></mxGeometry></mxCell><mxCell id="2pr-cq2XwRSKHlOQ0C3z-12" value="CSR API" style="edgeLabel;html=1;align=center;verticalAlign=middle;resizable=0;points=[];fontSize=14;" parent="2pr-cq2XwRSKHlOQ0C3z-11" vertex="1" connectable="0"><mxGeometry x="-0.1976" y="2" relative="1" as="geometry"><mxPoint x="-20" y="65" as="offset"/></mxGeometry></mxCell><mxCell id="2pr-cq2XwRSKHlOQ0C3z-13" value="&lt;font style=&quot;font-size: 14px&quot;&gt;istio-agent A&lt;br&gt;&lt;/font&gt;" style="rounded=0;whiteSpace=wrap;html=1;fillColor=#dae8fc;strokeColor=#6c8ebf;" parent="o6x-bZwLUevfCQAX-Tia-1" vertex="1"><mxGeometry x="80" y="370" width="120" height="60" as="geometry"/></mxCell><mxCell id="2pr-cq2XwRSKHlOQ0C3z-14" value="ADS" style="edgeStyle=orthogonalEdgeStyle;rounded=0;orthogonalLoop=1;jettySize=auto;html=1;exitX=0.183;exitY=0;exitDx=0;exitDy=0;entryX=0.667;entryY=1.017;entryDx=0;entryDy=0;entryPerimeter=0;startArrow=none;startFill=0;fillColor=#1ba1e2;strokeColor=#006EAF;fontSize=14;exitPerimeter=0;dashed=1;strokeWidth=2;" parent="o6x-bZwLUevfCQAX-Tia-1" source="2pr-cq2XwRSKHlOQ0C3z-17" target="2pr-cq2XwRSKHlOQ0C3z-8" edge="1"><mxGeometry relative="1" as="geometry"/></mxCell><mxCell id="2pr-cq2XwRSKHlOQ0C3z-15" style="edgeStyle=orthogonalEdgeStyle;orthogonalLoop=1;jettySize=auto;html=1;startArrow=none;startFill=0;fillColor=#1ba1e2;strokeColor=#006EAF;entryX=1;entryY=0.75;entryDx=0;entryDy=0;exitX=0.75;exitY=0;exitDx=0;exitDy=0;rounded=0;dashed=1;strokeWidth=2;" parent="o6x-bZwLUevfCQAX-Tia-1" source="2pr-cq2XwRSKHlOQ0C3z-17" target="2pr-cq2XwRSKHlOQ0C3z-8" edge="1"><mxGeometry relative="1" as="geometry"><mxPoint x="658" y="410" as="sourcePoint"/><mxPoint x="480" y="400" as="targetPoint"/></mxGeometry></mxCell><mxCell id="2pr-cq2XwRSKHlOQ0C3z-16" value="CSR API" style="edgeLabel;html=1;align=center;verticalAlign=middle;resizable=0;points=[];fontSize=14;" parent="2pr-cq2XwRSKHlOQ0C3z-15" vertex="1" connectable="0"><mxGeometry x="-0.2232" y="-2" relative="1" as="geometry"><mxPoint x="18" y="65" as="offset"/></mxGeometry></mxCell><mxCell id="2pr-cq2XwRSKHlOQ0C3z-17" value="&lt;div style=&quot;font-size: 14px&quot;&gt;&lt;font style=&quot;font-size: 14px&quot;&gt;istio-agent B&lt;br&gt;&lt;/font&gt;&lt;/div&gt;" style="rounded=0;whiteSpace=wrap;html=1;fillColor=#dae8fc;strokeColor=#6c8ebf;" parent="o6x-bZwLUevfCQAX-Tia-1" vertex="1"><mxGeometry x="660" y="370" width="120" height="60" as="geometry"/></mxCell><mxCell id="2pr-cq2XwRSKHlOQ0C3z-18" value="&lt;font style=&quot;font-size: 14px&quot;&gt;ADS&lt;/font&gt;" style="edgeStyle=orthogonalEdgeStyle;rounded=0;orthogonalLoop=1;jettySize=auto;html=1;exitX=0.5;exitY=0;exitDx=0;exitDy=0;entryX=0.5;entryY=1;entryDx=0;entryDy=0;fontStyle=0" parent="o6x-bZwLUevfCQAX-Tia-1" edge="1"><mxGeometry relative="1" as="geometry"><mxPoint x="690" y="480" as="sourcePoint"/><mxPoint x="690" y="430" as="targetPoint"/></mxGeometry></mxCell><mxCell id="2pr-cq2XwRSKHlOQ0C3z-19" value="&lt;font style=&quot;font-size: 14px&quot;&gt;SDS&lt;/font&gt;" style="edgeStyle=orthogonalEdgeStyle;rounded=0;orthogonalLoop=1;jettySize=auto;html=1;entryX=0.75;entryY=1;entryDx=0;entryDy=0;exitX=0.75;exitY=0;exitDx=0;exitDy=0;" parent="o6x-bZwLUevfCQAX-Tia-1" source="2pr-cq2XwRSKHlOQ0C3z-20" target="2pr-cq2XwRSKHlOQ0C3z-17" edge="1"><mxGeometry relative="1" as="geometry"/></mxCell><mxCell id="2pr-cq2XwRSKHlOQ0C3z-20" value="&lt;div style=&quot;font-size: 14px&quot;&gt;&lt;font style=&quot;font-size: 14px&quot;&gt;Envoy B&lt;br&gt;&lt;/font&gt;&lt;/div&gt;" style="rounded=0;whiteSpace=wrap;html=1;fillColor=#dae8fc;strokeColor=#6c8ebf;" parent="o6x-bZwLUevfCQAX-Tia-1" vertex="1"><mxGeometry x="660" y="480" width="120" height="60" as="geometry"/></mxCell><mxCell id="2pr-cq2XwRSKHlOQ0C3z-21" value="&lt;font style=&quot;font-size: 14px&quot;&gt;SDS&lt;/font&gt;" style="edgeStyle=orthogonalEdgeStyle;rounded=0;orthogonalLoop=1;jettySize=auto;html=1;exitX=0.25;exitY=0;exitDx=0;exitDy=0;entryX=0.25;entryY=1;entryDx=0;entryDy=0;" parent="o6x-bZwLUevfCQAX-Tia-1" source="2pr-cq2XwRSKHlOQ0C3z-25" target="2pr-cq2XwRSKHlOQ0C3z-13" edge="1"><mxGeometry relative="1" as="geometry"/></mxCell><mxCell id="2pr-cq2XwRSKHlOQ0C3z-22" style="edgeStyle=orthogonalEdgeStyle;rounded=0;orthogonalLoop=1;jettySize=auto;html=1;exitX=1;exitY=0.5;exitDx=0;exitDy=0;entryX=0;entryY=0.5;entryDx=0;entryDy=0;startArrow=classic;startFill=1;fillColor=#f8cecc;strokeColor=#b85450;strokeWidth=2;" parent="o6x-bZwLUevfCQAX-Tia-1" source="2pr-cq2XwRSKHlOQ0C3z-25" target="2pr-cq2XwRSKHlOQ0C3z-20" edge="1"><mxGeometry relative="1" as="geometry"/></mxCell><mxCell id="2pr-cq2XwRSKHlOQ0C3z-23" value="mTLS" style="edgeLabel;html=1;align=center;verticalAlign=middle;resizable=0;points=[];fontSize=14;" parent="2pr-cq2XwRSKHlOQ0C3z-22" vertex="1" connectable="0"><mxGeometry x="-0.1286" y="-1" relative="1" as="geometry"><mxPoint as="offset"/></mxGeometry></mxCell><mxCell id="2pr-cq2XwRSKHlOQ0C3z-24" value="&lt;font style=&quot;font-size: 14px&quot;&gt;ADS&lt;/font&gt;" style="edgeStyle=orthogonalEdgeStyle;rounded=0;orthogonalLoop=1;jettySize=auto;html=1;startArrow=none;startFill=0;" parent="o6x-bZwLUevfCQAX-Tia-1" source="2pr-cq2XwRSKHlOQ0C3z-25" target="2pr-cq2XwRSKHlOQ0C3z-13" edge="1"><mxGeometry relative="1" as="geometry"><Array as="points"><mxPoint x="170" y="450"/><mxPoint x="170" y="450"/></Array></mxGeometry></mxCell><mxCell id="2pr-cq2XwRSKHlOQ0C3z-25" value="&lt;div style=&quot;font-size: 14px&quot;&gt;&lt;font style=&quot;font-size: 14px&quot;&gt;Envoy A&lt;br&gt;&lt;/font&gt;&lt;/div&gt;" style="rounded=0;whiteSpace=wrap;html=1;fillColor=#dae8fc;strokeColor=#6c8ebf;" parent="o6x-bZwLUevfCQAX-Tia-1" vertex="1"><mxGeometry x="80" y="480" width="120" height="60" as="geometry"/></mxCell><mxCell id="2pr-cq2XwRSKHlOQ0C3z-27" value="Node" style="text;html=1;strokeColor=#666666;fillColor=#f5f5f5;align=center;verticalAlign=middle;whiteSpace=wrap;rounded=0;fontSize=14;fontColor=#333333;" parent="o6x-bZwLUevfCQAX-Tia-1" vertex="1"><mxGeometry x="70" y="30" width="70" height="20" as="geometry"/></mxCell><mxCell id="2pr-cq2XwRSKHlOQ0C3z-28" value="Pod" style="text;html=1;strokeColor=#d6b656;fillColor=#fff2cc;align=center;verticalAlign=middle;whiteSpace=wrap;rounded=0;fontSize=14;" parent="o6x-bZwLUevfCQAX-Tia-1" vertex="1"><mxGeometry x="70" y="60" width="70" height="20" as="geometry"/></mxCell><mxCell id="2pr-cq2XwRSKHlOQ0C3z-29" value="" style="edgeStyle=orthogonalEdgeStyle;rounded=0;orthogonalLoop=1;jettySize=auto;html=1;startArrow=classic;startFill=1;" parent="o6x-bZwLUevfCQAX-Tia-1" source="2pr-cq2XwRSKHlOQ0C3z-30" target="2pr-cq2XwRSKHlOQ0C3z-20" edge="1"><mxGeometry relative="1" as="geometry"/></mxCell><mxCell id="2pr-cq2XwRSKHlOQ0C3z-30" value="&lt;font style=&quot;font-size: 14px&quot;&gt;Service B&lt;/font&gt;" style="rounded=0;whiteSpace=wrap;html=1;fillColor=#f8cecc;strokeColor=#b85450;" parent="o6x-bZwLUevfCQAX-Tia-1" vertex="1"><mxGeometry x="660" y="570" width="120" height="60" as="geometry"/></mxCell><mxCell id="2pr-cq2XwRSKHlOQ0C3z-32" style="edgeStyle=orthogonalEdgeStyle;rounded=0;orthogonalLoop=1;jettySize=auto;html=1;exitX=0.5;exitY=1;exitDx=0;exitDy=0;" parent="o6x-bZwLUevfCQAX-Tia-1" edge="1"><mxGeometry relative="1" as="geometry"><mxPoint x="135" y="110" as="sourcePoint"/><mxPoint x="135" y="110" as="targetPoint"/></mxGeometry></mxCell><mxCell id="2pr-cq2XwRSKHlOQ0C3z-33" value="Istio Component" style="text;html=1;strokeColor=#6c8ebf;fillColor=#dae8fc;align=center;verticalAlign=middle;whiteSpace=wrap;rounded=0;fontSize=14;" parent="o6x-bZwLUevfCQAX-Tia-1" vertex="1"><mxGeometry x="70" y="90" width="130" height="20" as="geometry"/></mxCell><mxCell id="2pr-cq2XwRSKHlOQ0C3z-34" value="" style="edgeStyle=orthogonalEdgeStyle;rounded=0;orthogonalLoop=1;jettySize=auto;html=1;startArrow=classic;startFill=1;" parent="o6x-bZwLUevfCQAX-Tia-1" source="2pr-cq2XwRSKHlOQ0C3z-35" target="2pr-cq2XwRSKHlOQ0C3z-25" edge="1"><mxGeometry relative="1" as="geometry"/></mxCell><mxCell id="2pr-cq2XwRSKHlOQ0C3z-35" value="&lt;font style=&quot;font-size: 14px&quot;&gt;Service A &lt;br&gt;&lt;/font&gt;" style="rounded=0;whiteSpace=wrap;html=1;fillColor=#f8cecc;strokeColor=#b85450;" parent="o6x-bZwLUevfCQAX-Tia-1" vertex="1"><mxGeometry x="80" y="570" width="120" height="60" as="geometry"/></mxCell><mxCell id="2pr-cq2XwRSKHlOQ0C3z-39" value="" style="shape=image;html=1;verticalAlign=top;verticalLabelPosition=bottom;labelBackgroundColor=#ffffff;imageAspect=0;aspect=fixed;image=https://cdn3.iconfinder.com/data/icons/dompicon-glyph-file-format-2/256/file-csr-format-type-128.png" parent="o6x-bZwLUevfCQAX-Tia-1" vertex="1"><mxGeometry x="220" y="210" width="40" height="40" as="geometry"/></mxCell><mxCell id="2pr-cq2XwRSKHlOQ0C3z-46" value="" style="aspect=fixed;perimeter=ellipsePerimeter;html=1;align=center;shadow=0;dashed=0;fontColor=#4277BB;labelBackgroundColor=#ffffff;fontSize=12;spacingTop=3;image;image=img/lib/ibm/blockchain/certificate_authority.svg;" parent="o6x-bZwLUevfCQAX-Tia-1" vertex="1"><mxGeometry x="400" y="170" width="40" height="40" as="geometry"/></mxCell><mxCell id="2pr-cq2XwRSKHlOQ0C3z-48" value="" style="shape=image;html=1;verticalAlign=top;verticalLabelPosition=bottom;labelBackgroundColor=#ffffff;imageAspect=0;aspect=fixed;image=https://cdn3.iconfinder.com/data/icons/dompicon-glyph-file-format-2/256/file-csr-format-type-128.png" parent="o6x-bZwLUevfCQAX-Tia-1" vertex="1"><mxGeometry x="590" y="210" width="40" height="40" as="geometry"/></mxCell><mxCell id="JmC-cBl0EJtOi2IEO7m_-0" value="" style="endArrow=none;dashed=1;html=1;strokeColor=#6c8ebf;strokeWidth=3;fillColor=#dae8fc;fontColor=#66B2FF;" parent="o6x-bZwLUevfCQAX-Tia-1" edge="1"><mxGeometry width="50" height="50" relative="1" as="geometry"><mxPoint x="600" y="60" as="sourcePoint"/><mxPoint x="750" y="60" as="targetPoint"/></mxGeometry></mxCell><mxCell id="JmC-cBl0EJtOi2IEO7m_-1" value="&lt;font style=&quot;font-size: 14px&quot;&gt;Control plane traffic&lt;/font&gt;" style="edgeLabel;html=1;align=center;verticalAlign=middle;resizable=0;points=[];" parent="JmC-cBl0EJtOi2IEO7m_-0" vertex="1" connectable="0"><mxGeometry x="0.1111" y="-2" relative="1" as="geometry"><mxPoint x="-10" y="-22" as="offset"/></mxGeometry></mxCell><mxCell id="JmC-cBl0EJtOi2IEO7m_-4" value="" style="endArrow=none;html=1;strokeColor=#b85450;strokeWidth=3;fillColor=#f8cecc;fontColor=#66B2FF;" parent="o6x-bZwLUevfCQAX-Tia-1" edge="1"><mxGeometry width="50" height="50" relative="1" as="geometry"><mxPoint x="600" y="99.5" as="sourcePoint"/><mxPoint x="750" y="99.5" as="targetPoint"/></mxGeometry></mxCell><mxCell id="JmC-cBl0EJtOi2IEO7m_-5" value="&lt;font style=&quot;font-size: 14px&quot;&gt;Mesh traffic&lt;/font&gt;" style="edgeLabel;html=1;align=center;verticalAlign=middle;resizable=0;points=[];" parent="JmC-cBl0EJtOi2IEO7m_-4" vertex="1" connectable="0"><mxGeometry x="0.1111" y="-2" relative="1" as="geometry"><mxPoint x="-10" y="-22" as="offset"/></mxGeometry></mxCell></root></mxGraphModel></diagram><diagram id="bGRr-YyPZtWwIx4oG2uz" name="istio-spire-old"><mxGraphModel dx="870" dy="582" grid="1" gridSize="10" guides="1" tooltips="1" connect="1" arrows="1" fold="1" page="1" pageScale="1" pageWidth="850" pageHeight="1100" math="0" shadow="0"><root><mxCell id="0"/><mxCell id="1" parent="0"/><mxCell id="fGaC3dCXFKZbjFizHjuH-2" value="" style="rounded=0;whiteSpace=wrap;html=1;" parent="1" vertex="1"><mxGeometry x="30" y="10" width="800" height="660" as="geometry"/></mxCell><mxCell id="m4HaKlLS1RVG1bZ1arpF-15" value="" style="rounded=0;whiteSpace=wrap;html=1;fillColor=#f5f5f5;strokeColor=#666666;fontColor=#333333;" parent="1" vertex="1"><mxGeometry x="320" y="30" width="200" height="260" as="geometry"/></mxCell><mxCell id="m4HaKlLS1RVG1bZ1arpF-6" value="" style="rounded=0;whiteSpace=wrap;html=1;fillColor=#f5f5f5;strokeColor=#666666;fontColor=#333333;" parent="1" vertex="1"><mxGeometry x="40" y="340" width="780" height="320" as="geometry"/></mxCell><mxCell id="m4HaKlLS1RVG1bZ1arpF-4" value="" style="rounded=0;whiteSpace=wrap;html=1;fillColor=#fff2cc;strokeColor=#d6b656;" parent="1" vertex="1"><mxGeometry x="340" y="170" width="160" height="100" as="geometry"/></mxCell><mxCell id="eNFoUabq9LrY6peEJu6R-21" value="" style="rounded=0;whiteSpace=wrap;html=1;fillColor=#fff2cc;strokeColor=#d6b656;" parent="1" vertex="1"><mxGeometry x="640" y="360" width="160" height="280" as="geometry"/></mxCell><mxCell id="eNFoUabq9LrY6peEJu6R-18" value="" style="rounded=0;whiteSpace=wrap;html=1;fillColor=#fff2cc;strokeColor=#d6b656;" parent="1" vertex="1"><mxGeometry x="60" y="360" width="160" height="280" as="geometry"/></mxCell><mxCell id="eNFoUabq9LrY6peEJu6R-1" value="&lt;div style=&quot;font-size: 15px&quot;&gt;&lt;font style=&quot;font-size: 15px&quot;&gt;spire-agent&lt;/font&gt;&lt;/div&gt;" style="rounded=0;whiteSpace=wrap;html=1;fillColor=#d5e8d4;strokeColor=#82b366;fontStyle=0" parent="1" vertex="1"><mxGeometry x="360" y="370" width="120" height="60" as="geometry"/></mxCell><mxCell id="eNFoUabq9LrY6peEJu6R-24" style="edgeStyle=orthogonalEdgeStyle;rounded=0;orthogonalLoop=1;jettySize=auto;html=1;startArrow=none;startFill=0;fontSize=14;fillColor=#d5e8d4;strokeColor=#82b366;entryX=0.5;entryY=1;entryDx=0;entryDy=0;dashed=1;strokeWidth=2;" parent="1" source="eNFoUabq9LrY6peEJu6R-2" target="m4HaKlLS1RVG1bZ1arpF-3" edge="1"><mxGeometry relative="1" as="geometry"><mxPoint x="420" y="130" as="targetPoint"/></mxGeometry></mxCell><mxCell id="eNFoUabq9LrY6peEJu6R-25" value="Fetch Identities" style="edgeLabel;html=1;align=center;verticalAlign=middle;resizable=0;points=[];fontSize=14;" parent="eNFoUabq9LrY6peEJu6R-24" vertex="1" connectable="0"><mxGeometry x="-0.125" relative="1" as="geometry"><mxPoint as="offset"/></mxGeometry></mxCell><mxCell id="eNFoUabq9LrY6peEJu6R-2" value="&lt;font style=&quot;font-size: 15px&quot;&gt;istiod&lt;/font&gt;" style="rounded=0;whiteSpace=wrap;html=1;fillColor=#dae8fc;strokeColor=#6c8ebf;fontSize=14;" parent="1" vertex="1"><mxGeometry x="360" y="190" width="120" height="60" as="geometry"/></mxCell><mxCell id="eNFoUabq9LrY6peEJu6R-12" style="edgeStyle=orthogonalEdgeStyle;rounded=0;orthogonalLoop=1;jettySize=auto;html=1;exitX=0.5;exitY=0;exitDx=0;exitDy=0;entryX=0.342;entryY=1.017;entryDx=0;entryDy=0;entryPerimeter=0;startArrow=none;startFill=0;fillColor=#1ba1e2;strokeColor=#006EAF;fontSize=14;dashed=1;strokeWidth=2;" parent="1" source="eNFoUabq9LrY6peEJu6R-3" target="eNFoUabq9LrY6peEJu6R-2" edge="1"><mxGeometry relative="1" as="geometry"/></mxCell><mxCell id="sKLb6OPEsB9_2TRwOVNP-1" value="ADS" style="edgeLabel;html=1;align=center;verticalAlign=middle;resizable=0;points=[];fontSize=14;" parent="eNFoUabq9LrY6peEJu6R-12" vertex="1" connectable="0"><mxGeometry x="0.1418" y="-2" relative="1" as="geometry"><mxPoint as="offset"/></mxGeometry></mxCell><mxCell id="eNFoUabq9LrY6peEJu6R-15" style="edgeStyle=orthogonalEdgeStyle;rounded=0;orthogonalLoop=1;jettySize=auto;html=1;entryX=0;entryY=0.5;entryDx=0;entryDy=0;startArrow=none;startFill=0;exitX=1;exitY=0.5;exitDx=0;exitDy=0;fillColor=#d5e8d4;strokeColor=#82b366;dashed=1;fontSize=14;strokeWidth=2;" parent="1" source="eNFoUabq9LrY6peEJu6R-3" target="eNFoUabq9LrY6peEJu6R-1" edge="1"><mxGeometry relative="1" as="geometry"/></mxCell><mxCell id="eNFoUabq9LrY6peEJu6R-17" value="Fetch Identities" style="edgeLabel;html=1;align=center;verticalAlign=middle;resizable=0;points=[];fontSize=14;" parent="eNFoUabq9LrY6peEJu6R-15" vertex="1" connectable="0"><mxGeometry x="-0.1976" y="2" relative="1" as="geometry"><mxPoint x="12" as="offset"/></mxGeometry></mxCell><mxCell id="eNFoUabq9LrY6peEJu6R-3" value="&lt;font style=&quot;font-size: 14px&quot;&gt;istio-agent A&lt;br&gt;&lt;/font&gt;" style="rounded=0;whiteSpace=wrap;html=1;fillColor=#dae8fc;strokeColor=#6c8ebf;" parent="1" vertex="1"><mxGeometry x="80" y="370" width="120" height="60" as="geometry"/></mxCell><mxCell id="eNFoUabq9LrY6peEJu6R-13" value="ADS" style="edgeStyle=orthogonalEdgeStyle;rounded=0;orthogonalLoop=1;jettySize=auto;html=1;exitX=0.5;exitY=0;exitDx=0;exitDy=0;entryX=0.667;entryY=1.017;entryDx=0;entryDy=0;entryPerimeter=0;startArrow=none;startFill=0;fillColor=#1ba1e2;strokeColor=#006EAF;fontSize=14;strokeWidth=2;dashed=1;" parent="1" source="eNFoUabq9LrY6peEJu6R-4" target="eNFoUabq9LrY6peEJu6R-2" edge="1"><mxGeometry relative="1" as="geometry"/></mxCell><mxCell id="eNFoUabq9LrY6peEJu6R-14" style="edgeStyle=orthogonalEdgeStyle;rounded=0;orthogonalLoop=1;jettySize=auto;html=1;startArrow=none;startFill=0;fillColor=#d5e8d4;strokeColor=#82b366;entryX=1;entryY=0.5;entryDx=0;entryDy=0;dashed=1;fontSize=14;strokeWidth=2;" parent="1" source="eNFoUabq9LrY6peEJu6R-4" target="eNFoUabq9LrY6peEJu6R-1" edge="1"><mxGeometry relative="1" as="geometry"><mxPoint x="658" y="410" as="sourcePoint"/><mxPoint x="480" y="410" as="targetPoint"/></mxGeometry></mxCell><mxCell id="eNFoUabq9LrY6peEJu6R-16" value="&lt;div style=&quot;font-size: 14px;&quot;&gt;Fetch Identities&lt;/div&gt;" style="edgeLabel;html=1;align=center;verticalAlign=middle;resizable=0;points=[];fontSize=14;" parent="eNFoUabq9LrY6peEJu6R-14" vertex="1" connectable="0"><mxGeometry x="-0.2232" y="-2" relative="1" as="geometry"><mxPoint x="-15" as="offset"/></mxGeometry></mxCell><mxCell id="eNFoUabq9LrY6peEJu6R-4" value="&lt;div style=&quot;font-size: 14px&quot;&gt;&lt;font style=&quot;font-size: 14px&quot;&gt;istio-agent B&lt;br&gt;&lt;/font&gt;&lt;/div&gt;" style="rounded=0;whiteSpace=wrap;html=1;fillColor=#dae8fc;strokeColor=#6c8ebf;" parent="1" vertex="1"><mxGeometry x="660" y="370" width="120" height="60" as="geometry"/></mxCell><mxCell id="eNFoUabq9LrY6peEJu6R-9" value="&lt;font style=&quot;font-size: 14px&quot;&gt;ADS&lt;/font&gt;" style="edgeStyle=orthogonalEdgeStyle;rounded=0;orthogonalLoop=1;jettySize=auto;html=1;exitX=0.5;exitY=0;exitDx=0;exitDy=0;entryX=0.5;entryY=1;entryDx=0;entryDy=0;fontStyle=0" parent="1" edge="1"><mxGeometry relative="1" as="geometry"><mxPoint x="690" y="480" as="sourcePoint"/><mxPoint x="690" y="430" as="targetPoint"/></mxGeometry></mxCell><mxCell id="m4HaKlLS1RVG1bZ1arpF-10" value="&lt;font style=&quot;font-size: 14px&quot;&gt;SDS&lt;/font&gt;" style="edgeStyle=orthogonalEdgeStyle;rounded=0;orthogonalLoop=1;jettySize=auto;html=1;entryX=0.75;entryY=1;entryDx=0;entryDy=0;exitX=0.75;exitY=0;exitDx=0;exitDy=0;" parent="1" source="eNFoUabq9LrY6peEJu6R-5" target="eNFoUabq9LrY6peEJu6R-4" edge="1"><mxGeometry relative="1" as="geometry"/></mxCell><mxCell id="eNFoUabq9LrY6peEJu6R-5" value="&lt;div style=&quot;font-size: 14px&quot;&gt;&lt;font style=&quot;font-size: 14px&quot;&gt;Envoy B&lt;br&gt;&lt;/font&gt;&lt;/div&gt;" style="rounded=0;whiteSpace=wrap;html=1;fillColor=#dae8fc;strokeColor=#6c8ebf;" parent="1" vertex="1"><mxGeometry x="660" y="480" width="120" height="60" as="geometry"/></mxCell><mxCell id="eNFoUabq9LrY6peEJu6R-8" value="&lt;font style=&quot;font-size: 14px&quot;&gt;SDS&lt;/font&gt;" style="edgeStyle=orthogonalEdgeStyle;rounded=0;orthogonalLoop=1;jettySize=auto;html=1;exitX=0.25;exitY=0;exitDx=0;exitDy=0;entryX=0.25;entryY=1;entryDx=0;entryDy=0;" parent="1" source="eNFoUabq9LrY6peEJu6R-6" target="eNFoUabq9LrY6peEJu6R-3" edge="1"><mxGeometry relative="1" as="geometry"/></mxCell><mxCell id="eNFoUabq9LrY6peEJu6R-11" style="edgeStyle=orthogonalEdgeStyle;rounded=0;orthogonalLoop=1;jettySize=auto;html=1;exitX=1;exitY=0.5;exitDx=0;exitDy=0;entryX=0;entryY=0.5;entryDx=0;entryDy=0;startArrow=classic;startFill=1;fillColor=#f8cecc;strokeColor=#b85450;" parent="1" source="eNFoUabq9LrY6peEJu6R-6" target="eNFoUabq9LrY6peEJu6R-5" edge="1"><mxGeometry relative="1" as="geometry"/></mxCell><mxCell id="eNFoUabq9LrY6peEJu6R-23" value="mTLS" style="edgeLabel;html=1;align=center;verticalAlign=middle;resizable=0;points=[];fontSize=14;" parent="eNFoUabq9LrY6peEJu6R-11" vertex="1" connectable="0"><mxGeometry x="-0.1286" y="-1" relative="1" as="geometry"><mxPoint as="offset"/></mxGeometry></mxCell><mxCell id="m4HaKlLS1RVG1bZ1arpF-17" value="&lt;font style=&quot;font-size: 14px&quot;&gt;ADS&lt;/font&gt;" style="edgeStyle=orthogonalEdgeStyle;rounded=0;orthogonalLoop=1;jettySize=auto;html=1;startArrow=none;startFill=0;" parent="1" source="eNFoUabq9LrY6peEJu6R-6" target="eNFoUabq9LrY6peEJu6R-3" edge="1"><mxGeometry relative="1" as="geometry"><Array as="points"><mxPoint x="170" y="450"/><mxPoint x="170" y="450"/></Array></mxGeometry></mxCell><mxCell id="eNFoUabq9LrY6peEJu6R-6" value="&lt;div style=&quot;font-size: 14px&quot;&gt;&lt;font style=&quot;font-size: 14px&quot;&gt;Envoy A&lt;br&gt;&lt;/font&gt;&lt;/div&gt;" style="rounded=0;whiteSpace=wrap;html=1;fillColor=#dae8fc;strokeColor=#6c8ebf;" parent="1" vertex="1"><mxGeometry x="80" y="480" width="120" height="60" as="geometry"/></mxCell><mxCell id="m4HaKlLS1RVG1bZ1arpF-3" value="&lt;div style=&quot;font-size: 15px&quot;&gt;&lt;font style=&quot;font-size: 15px&quot;&gt;spire-agent&lt;/font&gt;&lt;/div&gt;" style="rounded=0;whiteSpace=wrap;html=1;fillColor=#d5e8d4;strokeColor=#82b366;fontStyle=0" parent="1" vertex="1"><mxGeometry x="360" y="50" width="120" height="60" as="geometry"/></mxCell><mxCell id="m4HaKlLS1RVG1bZ1arpF-7" value="Node" style="text;html=1;strokeColor=#666666;fillColor=#f5f5f5;align=center;verticalAlign=middle;whiteSpace=wrap;rounded=0;fontSize=14;fontColor=#333333;" parent="1" vertex="1"><mxGeometry x="70" y="30" width="70" height="20" as="geometry"/></mxCell><mxCell id="m4HaKlLS1RVG1bZ1arpF-8" value="Pod" style="text;html=1;strokeColor=#d6b656;fillColor=#fff2cc;align=center;verticalAlign=middle;whiteSpace=wrap;rounded=0;fontSize=14;" parent="1" vertex="1"><mxGeometry x="70" y="60" width="70" height="20" as="geometry"/></mxCell><mxCell id="m4HaKlLS1RVG1bZ1arpF-16" value="" style="edgeStyle=orthogonalEdgeStyle;rounded=0;orthogonalLoop=1;jettySize=auto;html=1;startArrow=classic;startFill=1;" parent="1" source="m4HaKlLS1RVG1bZ1arpF-11" target="eNFoUabq9LrY6peEJu6R-5" edge="1"><mxGeometry relative="1" as="geometry"/></mxCell><mxCell id="m4HaKlLS1RVG1bZ1arpF-11" value="&lt;font style=&quot;font-size: 14px&quot;&gt;Service B&lt;/font&gt;" style="rounded=0;whiteSpace=wrap;html=1;fillColor=#f8cecc;strokeColor=#b85450;" parent="1" vertex="1"><mxGeometry x="660" y="570" width="120" height="60" as="geometry"/></mxCell><mxCell id="m4HaKlLS1RVG1bZ1arpF-12" value="SPIRE Component" style="text;html=1;strokeColor=#82b366;fillColor=#d5e8d4;align=center;verticalAlign=middle;whiteSpace=wrap;rounded=0;fontSize=14;" parent="1" vertex="1"><mxGeometry x="70" y="90" width="130" height="20" as="geometry"/></mxCell><mxCell id="m4HaKlLS1RVG1bZ1arpF-13" style="edgeStyle=orthogonalEdgeStyle;rounded=0;orthogonalLoop=1;jettySize=auto;html=1;exitX=0.5;exitY=1;exitDx=0;exitDy=0;" parent="1" source="m4HaKlLS1RVG1bZ1arpF-12" target="m4HaKlLS1RVG1bZ1arpF-12" edge="1"><mxGeometry relative="1" as="geometry"/></mxCell><mxCell id="m4HaKlLS1RVG1bZ1arpF-14" value="Istio Component" style="text;html=1;strokeColor=#6c8ebf;fillColor=#dae8fc;align=center;verticalAlign=middle;whiteSpace=wrap;rounded=0;fontSize=14;" parent="1" vertex="1"><mxGeometry x="70" y="120" width="130" height="20" as="geometry"/></mxCell><mxCell id="m4HaKlLS1RVG1bZ1arpF-19" value="" style="edgeStyle=orthogonalEdgeStyle;rounded=0;orthogonalLoop=1;jettySize=auto;html=1;startArrow=classic;startFill=1;" parent="1" source="m4HaKlLS1RVG1bZ1arpF-18" target="eNFoUabq9LrY6peEJu6R-6" edge="1"><mxGeometry relative="1" as="geometry"/></mxCell><mxCell id="m4HaKlLS1RVG1bZ1arpF-18" value="&lt;font style=&quot;font-size: 14px&quot;&gt;Service A &lt;br&gt;&lt;/font&gt;" style="rounded=0;whiteSpace=wrap;html=1;fillColor=#f8cecc;strokeColor=#b85450;" parent="1" vertex="1"><mxGeometry x="80" y="570" width="120" height="60" as="geometry"/></mxCell><mxCell id="CrIGs2gSVURvgxCzwirr-1" value="" style="endArrow=none;dashed=1;html=1;strokeColor=#6c8ebf;strokeWidth=3;fillColor=#dae8fc;fontColor=#66B2FF;" parent="1" edge="1"><mxGeometry width="50" height="50" relative="1" as="geometry"><mxPoint x="600" y="60" as="sourcePoint"/><mxPoint x="750" y="60" as="targetPoint"/></mxGeometry></mxCell><mxCell id="cVjm5dFT9kqPvQcufBFv-1" value="&lt;font style=&quot;font-size: 14px&quot;&gt;Control plane traffic&lt;/font&gt;" style="edgeLabel;html=1;align=center;verticalAlign=middle;resizable=0;points=[];" parent="CrIGs2gSVURvgxCzwirr-1" vertex="1" connectable="0"><mxGeometry x="0.1111" y="-2" relative="1" as="geometry"><mxPoint x="-10" y="-22" as="offset"/></mxGeometry></mxCell><mxCell id="cVjm5dFT9kqPvQcufBFv-2" value="" style="endArrow=none;dashed=1;html=1;strokeColor=#82b366;strokeWidth=3;fillColor=#d5e8d4;fontColor=#66B2FF;" parent="1" edge="1"><mxGeometry width="50" height="50" relative="1" as="geometry"><mxPoint x="600" y="109" as="sourcePoint"/><mxPoint x="750" y="109" as="targetPoint"/></mxGeometry></mxCell><mxCell id="cVjm5dFT9kqPvQcufBFv-3" value="&lt;font style=&quot;font-size: 14px&quot;&gt;Identity plane traffic&lt;/font&gt;" style="edgeLabel;html=1;align=center;verticalAlign=middle;resizable=0;points=[];" parent="cVjm5dFT9kqPvQcufBFv-2" vertex="1" connectable="0"><mxGeometry x="0.1111" y="-2" relative="1" as="geometry"><mxPoint x="-10" y="-22" as="offset"/></mxGeometry></mxCell><mxCell id="cVjm5dFT9kqPvQcufBFv-4" value="" style="endArrow=none;html=1;strokeColor=#b85450;strokeWidth=3;fillColor=#f8cecc;fontColor=#66B2FF;" parent="1" edge="1"><mxGeometry width="50" height="50" relative="1" as="geometry"><mxPoint x="600" y="159.5" as="sourcePoint"/><mxPoint x="750" y="159.5" as="targetPoint"/></mxGeometry></mxCell><mxCell id="cVjm5dFT9kqPvQcufBFv-5" value="&lt;font style=&quot;font-size: 14px&quot;&gt;Mesh traffic&lt;/font&gt;" style="edgeLabel;html=1;align=center;verticalAlign=middle;resizable=0;points=[];" parent="cVjm5dFT9kqPvQcufBFv-4" vertex="1" connectable="0"><mxGeometry x="0.1111" y="-2" relative="1" as="geometry"><mxPoint x="-10" y="-22" as="offset"/></mxGeometry></mxCell></root></mxGraphModel></diagram><diagram name="Istio Proposal Architecture" id="yZ4f70IxWIf9K4ZqY44Z"><mxGraphModel dx="870" dy="582" grid="1" gridSize="10" guides="1" tooltips="1" connect="1" arrows="1" fold="1" page="1" pageScale="1" pageWidth="850" pageHeight="1100" math="0" shadow="0"><root><mxCell id="_NFrWNh900xSSrRwRR0y-0"/><mxCell id="_NFrWNh900xSSrRwRR0y-1" parent="_NFrWNh900xSSrRwRR0y-0"/><mxCell id="_NFrWNh900xSSrRwRR0y-2" value="" style="rounded=0;whiteSpace=wrap;html=1;" parent="_NFrWNh900xSSrRwRR0y-1" vertex="1"><mxGeometry x="30" width="795" height="700" as="geometry"/></mxCell><mxCell id="_NFrWNh900xSSrRwRR0y-3" value="" style="rounded=0;whiteSpace=wrap;html=1;fillColor=#f5f5f5;strokeColor=#666666;fontColor=#333333;" parent="_NFrWNh900xSSrRwRR0y-1" vertex="1"><mxGeometry x="320" y="37" width="200" height="260" as="geometry"/></mxCell><mxCell id="_NFrWNh900xSSrRwRR0y-4" value="" style="rounded=0;whiteSpace=wrap;html=1;fillColor=#f5f5f5;strokeColor=#666666;fontColor=#333333;" parent="_NFrWNh900xSSrRwRR0y-1" vertex="1"><mxGeometry x="40" y="340" width="780" height="320" as="geometry"/></mxCell><mxCell id="_NFrWNh900xSSrRwRR0y-5" value="" style="rounded=0;whiteSpace=wrap;html=1;fillColor=#fff2cc;strokeColor=#d6b656;" parent="_NFrWNh900xSSrRwRR0y-1" vertex="1"><mxGeometry x="340" y="130" width="150" height="140" as="geometry"/></mxCell><mxCell id="_NFrWNh900xSSrRwRR0y-6" value="" style="rounded=0;whiteSpace=wrap;html=1;fillColor=#fff2cc;strokeColor=#d6b656;" parent="_NFrWNh900xSSrRwRR0y-1" vertex="1"><mxGeometry x="640" y="360" width="160" height="280" as="geometry"/></mxCell><mxCell id="_NFrWNh900xSSrRwRR0y-7" value="" style="rounded=0;whiteSpace=wrap;html=1;fillColor=#fff2cc;strokeColor=#d6b656;" parent="_NFrWNh900xSSrRwRR0y-1" vertex="1"><mxGeometry x="60" y="360" width="160" height="280" as="geometry"/></mxCell><mxCell id="_NFrWNh900xSSrRwRR0y-8" value="&lt;div style=&quot;font-size: 15px&quot;&gt;&lt;font style=&quot;font-size: 15px&quot;&gt;SPIFFE Workload API&lt;/font&gt;&lt;/div&gt;" style="rounded=0;whiteSpace=wrap;html=1;fillColor=#d5e8d4;strokeColor=#82b366;fontStyle=0" parent="_NFrWNh900xSSrRwRR0y-1" vertex="1"><mxGeometry x="360" y="370" width="120" height="60" as="geometry"/></mxCell><mxCell id="_NFrWNh900xSSrRwRR0y-9" style="edgeStyle=orthogonalEdgeStyle;rounded=0;orthogonalLoop=1;jettySize=auto;html=1;startArrow=none;startFill=0;fontSize=14;fillColor=#d5e8d4;strokeColor=#82b366;entryX=0.5;entryY=1;entryDx=0;entryDy=0;dashed=1;strokeWidth=2;" parent="_NFrWNh900xSSrRwRR0y-1" source="_NFrWNh900xSSrRwRR0y-11" target="_NFrWNh900xSSrRwRR0y-24" edge="1"><mxGeometry relative="1" as="geometry"><mxPoint x="420" y="130" as="targetPoint"/></mxGeometry></mxCell><mxCell id="_NFrWNh900xSSrRwRR0y-10" value="Fetch identity*" style="edgeLabel;html=1;align=center;verticalAlign=middle;resizable=0;points=[];fontSize=14;" parent="_NFrWNh900xSSrRwRR0y-9" vertex="1" connectable="0"><mxGeometry x="-0.125" relative="1" as="geometry"><mxPoint as="offset"/></mxGeometry></mxCell><mxCell id="_NFrWNh900xSSrRwRR0y-11" value="&lt;font style=&quot;font-size: 15px&quot;&gt;Istiod&lt;/font&gt;" style="rounded=0;whiteSpace=wrap;html=1;fillColor=#dae8fc;strokeColor=#6c8ebf;fontSize=14;" parent="_NFrWNh900xSSrRwRR0y-1" vertex="1"><mxGeometry x="357" y="190" width="120" height="60" as="geometry"/></mxCell><mxCell id="_NFrWNh900xSSrRwRR0y-12" style="edgeStyle=orthogonalEdgeStyle;rounded=0;orthogonalLoop=1;jettySize=auto;html=1;entryX=0;entryY=0.5;entryDx=0;entryDy=0;startArrow=none;startFill=0;exitX=1;exitY=0.5;exitDx=0;exitDy=0;fillColor=#d5e8d4;strokeColor=#82b366;dashed=1;fontSize=14;strokeWidth=2;" parent="_NFrWNh900xSSrRwRR0y-1" source="_NFrWNh900xSSrRwRR0y-14" target="_NFrWNh900xSSrRwRR0y-8" edge="1"><mxGeometry relative="1" as="geometry"/></mxCell><mxCell id="_NFrWNh900xSSrRwRR0y-13" value="Fetch identity*" style="edgeLabel;html=1;align=center;verticalAlign=middle;resizable=0;points=[];fontSize=14;" parent="_NFrWNh900xSSrRwRR0y-12" vertex="1" connectable="0"><mxGeometry x="-0.1976" y="2" relative="1" as="geometry"><mxPoint x="12" as="offset"/></mxGeometry></mxCell><mxCell id="_NFrWNh900xSSrRwRR0y-14" value="&lt;font style=&quot;font-size: 14px&quot;&gt;Istio Agent A&lt;br&gt;&lt;/font&gt;" style="rounded=0;whiteSpace=wrap;html=1;fillColor=#dae8fc;strokeColor=#6c8ebf;" parent="_NFrWNh900xSSrRwRR0y-1" vertex="1"><mxGeometry x="80" y="370" width="120" height="60" as="geometry"/></mxCell><mxCell id="_NFrWNh900xSSrRwRR0y-15" style="edgeStyle=orthogonalEdgeStyle;rounded=0;orthogonalLoop=1;jettySize=auto;html=1;startArrow=none;startFill=0;fillColor=#d5e8d4;strokeColor=#82b366;entryX=1;entryY=0.5;entryDx=0;entryDy=0;dashed=1;fontSize=14;strokeWidth=2;" parent="_NFrWNh900xSSrRwRR0y-1" source="_NFrWNh900xSSrRwRR0y-17" target="_NFrWNh900xSSrRwRR0y-8" edge="1"><mxGeometry relative="1" as="geometry"><mxPoint x="658" y="410" as="sourcePoint"/><mxPoint x="480" y="410" as="targetPoint"/></mxGeometry></mxCell><mxCell id="_NFrWNh900xSSrRwRR0y-16" value="&lt;div style=&quot;font-size: 14px&quot;&gt;Fetch identity*&lt;/div&gt;" style="edgeLabel;html=1;align=center;verticalAlign=middle;resizable=0;points=[];fontSize=14;" parent="_NFrWNh900xSSrRwRR0y-15" vertex="1" connectable="0"><mxGeometry x="-0.2232" y="-2" relative="1" as="geometry"><mxPoint x="-15" as="offset"/></mxGeometry></mxCell><mxCell id="_NFrWNh900xSSrRwRR0y-17" value="&lt;div style=&quot;font-size: 14px&quot;&gt;&lt;font style=&quot;font-size: 14px&quot;&gt;Istio Agent B&lt;br&gt;&lt;/font&gt;&lt;/div&gt;" style="rounded=0;whiteSpace=wrap;html=1;fillColor=#dae8fc;strokeColor=#6c8ebf;" parent="_NFrWNh900xSSrRwRR0y-1" vertex="1"><mxGeometry x="660" y="370" width="120" height="60" as="geometry"/></mxCell><mxCell id="_NFrWNh900xSSrRwRR0y-18" value="&lt;font style=&quot;font-size: 14px&quot;&gt;SDS&lt;/font&gt;" style="edgeStyle=orthogonalEdgeStyle;rounded=0;orthogonalLoop=1;jettySize=auto;html=1;entryX=0.5;entryY=1;entryDx=0;entryDy=0;exitX=0.5;exitY=0;exitDx=0;exitDy=0;" parent="_NFrWNh900xSSrRwRR0y-1" source="_NFrWNh900xSSrRwRR0y-19" target="_NFrWNh900xSSrRwRR0y-17" edge="1"><mxGeometry relative="1" as="geometry"/></mxCell><mxCell id="_NFrWNh900xSSrRwRR0y-19" value="&lt;div style=&quot;font-size: 14px&quot;&gt;&lt;font style=&quot;font-size: 14px&quot;&gt;Envoy B&lt;br&gt;&lt;/font&gt;&lt;/div&gt;" style="rounded=0;whiteSpace=wrap;html=1;fillColor=#dae8fc;strokeColor=#6c8ebf;" parent="_NFrWNh900xSSrRwRR0y-1" vertex="1"><mxGeometry x="660" y="480" width="120" height="60" as="geometry"/></mxCell><mxCell id="_NFrWNh900xSSrRwRR0y-20" value="&lt;font style=&quot;font-size: 14px&quot;&gt;SDS&lt;/font&gt;" style="edgeStyle=orthogonalEdgeStyle;rounded=0;orthogonalLoop=1;jettySize=auto;html=1;exitX=0.5;exitY=0;exitDx=0;exitDy=0;entryX=0.5;entryY=1;entryDx=0;entryDy=0;" parent="_NFrWNh900xSSrRwRR0y-1" source="_NFrWNh900xSSrRwRR0y-23" target="_NFrWNh900xSSrRwRR0y-14" edge="1"><mxGeometry relative="1" as="geometry"/></mxCell><mxCell id="_NFrWNh900xSSrRwRR0y-21" style="edgeStyle=orthogonalEdgeStyle;rounded=0;orthogonalLoop=1;jettySize=auto;html=1;exitX=1;exitY=0.5;exitDx=0;exitDy=0;entryX=0;entryY=0.5;entryDx=0;entryDy=0;startArrow=classic;startFill=1;fillColor=#f8cecc;strokeColor=#b85450;" parent="_NFrWNh900xSSrRwRR0y-1" source="_NFrWNh900xSSrRwRR0y-23" target="_NFrWNh900xSSrRwRR0y-19" edge="1"><mxGeometry relative="1" as="geometry"/></mxCell><mxCell id="_NFrWNh900xSSrRwRR0y-22" value="mTLS" style="edgeLabel;html=1;align=center;verticalAlign=middle;resizable=0;points=[];fontSize=14;" parent="_NFrWNh900xSSrRwRR0y-21" vertex="1" connectable="0"><mxGeometry x="-0.1286" y="-1" relative="1" as="geometry"><mxPoint as="offset"/></mxGeometry></mxCell><mxCell id="_NFrWNh900xSSrRwRR0y-23" value="&lt;div style=&quot;font-size: 14px&quot;&gt;&lt;font style=&quot;font-size: 14px&quot;&gt;Envoy A&lt;br&gt;&lt;/font&gt;&lt;/div&gt;" style="rounded=0;whiteSpace=wrap;html=1;fillColor=#dae8fc;strokeColor=#6c8ebf;" parent="_NFrWNh900xSSrRwRR0y-1" vertex="1"><mxGeometry x="80" y="480" width="120" height="60" as="geometry"/></mxCell><mxCell id="_NFrWNh900xSSrRwRR0y-24" value="&lt;div style=&quot;font-size: 15px&quot;&gt;&lt;font style=&quot;font-size: 15px&quot;&gt;SPIFFE Workload API&lt;/font&gt;&lt;/div&gt;" style="rounded=0;whiteSpace=wrap;html=1;fillColor=#d5e8d4;strokeColor=#82b366;fontStyle=0" parent="_NFrWNh900xSSrRwRR0y-1" vertex="1"><mxGeometry x="357" y="50" width="120" height="60" as="geometry"/></mxCell><mxCell id="_NFrWNh900xSSrRwRR0y-25" value="Node" style="text;html=1;strokeColor=#666666;fillColor=#f5f5f5;align=center;verticalAlign=middle;whiteSpace=wrap;rounded=0;fontSize=14;fontColor=#333333;" parent="_NFrWNh900xSSrRwRR0y-1" vertex="1"><mxGeometry x="70" y="10" width="70" height="20" as="geometry"/></mxCell><mxCell id="_NFrWNh900xSSrRwRR0y-26" value="Pod" style="text;html=1;strokeColor=#d6b656;fillColor=#fff2cc;align=center;verticalAlign=middle;whiteSpace=wrap;rounded=0;fontSize=14;" parent="_NFrWNh900xSSrRwRR0y-1" vertex="1"><mxGeometry x="70" y="37" width="70" height="20" as="geometry"/></mxCell><mxCell id="_NFrWNh900xSSrRwRR0y-27" value="" style="edgeStyle=orthogonalEdgeStyle;rounded=0;orthogonalLoop=1;jettySize=auto;html=1;startArrow=classic;startFill=1;" parent="_NFrWNh900xSSrRwRR0y-1" source="_NFrWNh900xSSrRwRR0y-28" target="_NFrWNh900xSSrRwRR0y-19" edge="1"><mxGeometry relative="1" as="geometry"/></mxCell><mxCell id="_NFrWNh900xSSrRwRR0y-28" value="&lt;font style=&quot;font-size: 14px&quot;&gt;Service B&lt;/font&gt;" style="rounded=0;whiteSpace=wrap;html=1;fillColor=#f8cecc;strokeColor=#b85450;" parent="_NFrWNh900xSSrRwRR0y-1" vertex="1"><mxGeometry x="660" y="570" width="120" height="60" as="geometry"/></mxCell><mxCell id="_NFrWNh900xSSrRwRR0y-29" value="SPIRE Component" style="text;html=1;strokeColor=#82b366;fillColor=#d5e8d4;align=center;verticalAlign=middle;whiteSpace=wrap;rounded=0;fontSize=14;" parent="_NFrWNh900xSSrRwRR0y-1" vertex="1"><mxGeometry x="70" y="65" width="130" height="20" as="geometry"/></mxCell><mxCell id="_NFrWNh900xSSrRwRR0y-30" style="edgeStyle=orthogonalEdgeStyle;rounded=0;orthogonalLoop=1;jettySize=auto;html=1;exitX=0.5;exitY=1;exitDx=0;exitDy=0;" parent="_NFrWNh900xSSrRwRR0y-1" source="_NFrWNh900xSSrRwRR0y-29" target="_NFrWNh900xSSrRwRR0y-29" edge="1"><mxGeometry relative="1" as="geometry"/></mxCell><mxCell id="_NFrWNh900xSSrRwRR0y-31" value="Istio Component" style="text;html=1;strokeColor=#6c8ebf;fillColor=#dae8fc;align=center;verticalAlign=middle;whiteSpace=wrap;rounded=0;fontSize=14;" parent="_NFrWNh900xSSrRwRR0y-1" vertex="1"><mxGeometry x="70" y="92" width="130" height="20" as="geometry"/></mxCell><mxCell id="_NFrWNh900xSSrRwRR0y-32" value="" style="edgeStyle=orthogonalEdgeStyle;rounded=0;orthogonalLoop=1;jettySize=auto;html=1;startArrow=classic;startFill=1;" parent="_NFrWNh900xSSrRwRR0y-1" source="_NFrWNh900xSSrRwRR0y-33" target="_NFrWNh900xSSrRwRR0y-23" edge="1"><mxGeometry relative="1" as="geometry"/></mxCell><mxCell id="_NFrWNh900xSSrRwRR0y-33" value="&lt;font style=&quot;font-size: 14px&quot;&gt;Service A &lt;br&gt;&lt;/font&gt;" style="rounded=0;whiteSpace=wrap;html=1;fillColor=#f8cecc;strokeColor=#b85450;" parent="_NFrWNh900xSSrRwRR0y-1" vertex="1"><mxGeometry x="80" y="570" width="120" height="60" as="geometry"/></mxCell><mxCell id="_NFrWNh900xSSrRwRR0y-34" value="" style="endArrow=none;dashed=1;html=1;strokeColor=#82b366;strokeWidth=3;fillColor=#d5e8d4;fontColor=#66B2FF;" parent="_NFrWNh900xSSrRwRR0y-1" edge="1"><mxGeometry width="50" height="50" relative="1" as="geometry"><mxPoint x="600" y="95" as="sourcePoint"/><mxPoint x="750" y="95" as="targetPoint"/></mxGeometry></mxCell><mxCell id="_NFrWNh900xSSrRwRR0y-35" value="&lt;font style=&quot;font-size: 14px&quot;&gt;Identity plane traffic&lt;/font&gt;" style="edgeLabel;html=1;align=center;verticalAlign=middle;resizable=0;points=[];" parent="_NFrWNh900xSSrRwRR0y-34" vertex="1" connectable="0"><mxGeometry x="0.1111" y="-2" relative="1" as="geometry"><mxPoint x="-10" y="-22" as="offset"/></mxGeometry></mxCell><mxCell id="_NFrWNh900xSSrRwRR0y-36" value="" style="endArrow=none;html=1;strokeColor=#b85450;strokeWidth=3;fillColor=#f8cecc;fontColor=#66B2FF;" parent="_NFrWNh900xSSrRwRR0y-1" edge="1"><mxGeometry width="50" height="50" relative="1" as="geometry"><mxPoint x="600" y="143.5" as="sourcePoint"/><mxPoint x="750" y="143.5" as="targetPoint"/></mxGeometry></mxCell><mxCell id="_NFrWNh900xSSrRwRR0y-37" value="&lt;font style=&quot;font-size: 14px&quot;&gt;Mesh traffic&lt;/font&gt;" style="edgeLabel;html=1;align=center;verticalAlign=middle;resizable=0;points=[];" parent="_NFrWNh900xSSrRwRR0y-36" vertex="1" connectable="0"><mxGeometry x="0.1111" y="-2" relative="1" as="geometry"><mxPoint x="-10" y="-22" as="offset"/></mxGeometry></mxCell><mxCell id="_NFrWNh900xSSrRwRR0y-38" value="&lt;br&gt;&lt;br&gt;&lt;br&gt;CA Server" style="rounded=0;whiteSpace=wrap;html=1;fillColor=#d5e8d4;strokeColor=#82b366;fontSize=14;" parent="_NFrWNh900xSSrRwRR0y-1" vertex="1"><mxGeometry x="70" y="122" width="120" height="90" as="geometry"/></mxCell><mxCell id="_NFrWNh900xSSrRwRR0y-39" value="" style="aspect=fixed;perimeter=ellipsePerimeter;html=1;align=center;shadow=0;dashed=0;fontColor=#4277BB;labelBackgroundColor=#ffffff;fontSize=12;spacingTop=3;image;image=img/lib/ibm/blockchain/certificate_authority.svg;" parent="_NFrWNh900xSSrRwRR0y-1" vertex="1"><mxGeometry x="110" y="133" width="40" height="40" as="geometry"/></mxCell><mxCell id="_NFrWNh900xSSrRwRR0y-40" style="edgeStyle=orthogonalEdgeStyle;rounded=0;orthogonalLoop=1;jettySize=auto;html=1;startArrow=none;startFill=0;fillColor=#0050ef;strokeColor=#001DBC;dashed=1;fontSize=14;strokeWidth=2;exitX=0.5;exitY=0;exitDx=0;exitDy=0;entryX=0;entryY=0.75;entryDx=0;entryDy=0;" parent="_NFrWNh900xSSrRwRR0y-1" source="_NFrWNh900xSSrRwRR0y-14" target="_NFrWNh900xSSrRwRR0y-5" edge="1"><mxGeometry relative="1" as="geometry"><mxPoint x="240" y="310" as="sourcePoint"/><mxPoint x="400" y="310" as="targetPoint"/><Array as="points"><mxPoint x="140" y="235"/></Array></mxGeometry></mxCell><mxCell id="_NFrWNh900xSSrRwRR0y-41" value="Fetch configs (xDS)" style="edgeLabel;html=1;align=center;verticalAlign=middle;resizable=0;points=[];fontSize=14;" parent="_NFrWNh900xSSrRwRR0y-40" vertex="1" connectable="0"><mxGeometry x="-0.1976" y="2" relative="1" as="geometry"><mxPoint x="12" as="offset"/></mxGeometry></mxCell><mxCell id="_NFrWNh900xSSrRwRR0y-43" style="edgeStyle=orthogonalEdgeStyle;rounded=0;orthogonalLoop=1;jettySize=auto;html=1;startArrow=none;startFill=0;fillColor=#0050ef;strokeColor=#001DBC;dashed=1;fontSize=14;strokeWidth=2;exitX=0.5;exitY=0;exitDx=0;exitDy=0;" parent="_NFrWNh900xSSrRwRR0y-1" edge="1"><mxGeometry relative="1" as="geometry"><mxPoint x="720" y="374" as="sourcePoint"/><mxPoint x="490" y="234" as="targetPoint"/><Array as="points"><mxPoint x="720" y="234"/></Array></mxGeometry></mxCell><mxCell id="_NFrWNh900xSSrRwRR0y-44" value="Fetch configs (xDS)" style="edgeLabel;html=1;align=center;verticalAlign=middle;resizable=0;points=[];fontSize=14;" parent="_NFrWNh900xSSrRwRR0y-43" vertex="1" connectable="0"><mxGeometry x="-0.1976" y="2" relative="1" as="geometry"><mxPoint x="12" as="offset"/></mxGeometry></mxCell><mxCell id="_NFrWNh900xSSrRwRR0y-45" value="" style="endArrow=none;dashed=1;html=1;strokeColor=#001DBC;strokeWidth=3;fillColor=#0050ef;fontColor=#66B2FF;" parent="_NFrWNh900xSSrRwRR0y-1" edge="1"><mxGeometry width="50" height="50" relative="1" as="geometry"><mxPoint x="601" y="48" as="sourcePoint"/><mxPoint x="751" y="48" as="targetPoint"/></mxGeometry></mxCell><mxCell id="_NFrWNh900xSSrRwRR0y-46" value="&lt;span style=&quot;font-size: 14px&quot;&gt;Istio control plane traffic&lt;/span&gt;" style="edgeLabel;html=1;align=center;verticalAlign=middle;resizable=0;points=[];" parent="_NFrWNh900xSSrRwRR0y-45" vertex="1" connectable="0"><mxGeometry x="0.1111" y="-2" relative="1" as="geometry"><mxPoint x="-10" y="-25" as="offset"/></mxGeometry></mxCell><mxCell id="jU_OkBOJl9hQaK3rFkfp-3" value="Text" style="text;html=1;strokeColor=none;fillColor=none;align=center;verticalAlign=middle;whiteSpace=wrap;rounded=0;" parent="_NFrWNh900xSSrRwRR0y-1" vertex="1"><mxGeometry x="570" y="460" width="40" height="20" as="geometry"/></mxCell><mxCell id="jU_OkBOJl9hQaK3rFkfp-4" value="* this includes X.509 cert, key and bundles" style="text;html=1;strokeColor=none;fillColor=none;align=center;verticalAlign=middle;whiteSpace=wrap;rounded=0;" parent="_NFrWNh900xSSrRwRR0y-1" vertex="1"><mxGeometry x="590" y="173" width="160" height="20" as="geometry"/></mxCell></root></mxGraphModel></diagram><diagram id="fJNOQbAEN-djurgDd3CZ" name="Istio Proposal Flow"><mxGraphModel dx="870" dy="582" grid="1" gridSize="10" guides="1" tooltips="1" connect="1" arrows="1" fold="1" page="1" pageScale="1" pageWidth="850" pageHeight="1100" math="0" shadow="0"><root><mxCell id="DMBHtSkpAmCUNlvPPmwe-0"/><mxCell id="DMBHtSkpAmCUNlvPPmwe-1" parent="DMBHtSkpAmCUNlvPPmwe-0"/><mxCell id="fAZCSN9p-7HC3hCrflS_-0" value="envoy" style="rounded=1;whiteSpace=wrap;html=1;fillColor=#dae8fc;strokeColor=#6c8ebf;" parent="DMBHtSkpAmCUNlvPPmwe-1" vertex="1"><mxGeometry x="80" y="70" width="120" height="60" as="geometry"/></mxCell><mxCell id="fAZCSN9p-7HC3hCrflS_-2" value="istio-agent" style="rounded=1;whiteSpace=wrap;html=1;fillColor=#dae8fc;strokeColor=#6c8ebf;" parent="DMBHtSkpAmCUNlvPPmwe-1" vertex="1"><mxGeometry x="270" y="70" width="120" height="60" as="geometry"/></mxCell><mxCell id="fAZCSN9p-7HC3hCrflS_-3" value="SPIFFE Workload API" style="rounded=1;whiteSpace=wrap;html=1;fillColor=#dae8fc;strokeColor=#6c8ebf;" parent="DMBHtSkpAmCUNlvPPmwe-1" vertex="1"><mxGeometry x="490" y="70" width="120" height="60" as="geometry"/></mxCell><mxCell id="fAZCSN9p-7HC3hCrflS_-4" value="istiod (discovery)" style="rounded=1;whiteSpace=wrap;html=1;fillColor=#dae8fc;strokeColor=#6c8ebf;" parent="DMBHtSkpAmCUNlvPPmwe-1" vertex="1"><mxGeometry x="690" y="70" width="120" height="60" as="geometry"/></mxCell><mxCell id="fAZCSN9p-7HC3hCrflS_-5" value="envoy" style="rounded=1;whiteSpace=wrap;html=1;fillColor=#dae8fc;strokeColor=#6c8ebf;" parent="DMBHtSkpAmCUNlvPPmwe-1" vertex="1"><mxGeometry x="80" y="680" width="120" height="60" as="geometry"/></mxCell><mxCell id="fAZCSN9p-7HC3hCrflS_-6" value="istio-agent" style="rounded=1;whiteSpace=wrap;html=1;fillColor=#dae8fc;strokeColor=#6c8ebf;" parent="DMBHtSkpAmCUNlvPPmwe-1" vertex="1"><mxGeometry x="270" y="680" width="120" height="60" as="geometry"/></mxCell><mxCell id="fAZCSN9p-7HC3hCrflS_-7" value="SPIFFE Workload Endpoint" style="rounded=1;whiteSpace=wrap;html=1;fillColor=#dae8fc;strokeColor=#6c8ebf;" parent="DMBHtSkpAmCUNlvPPmwe-1" vertex="1"><mxGeometry x="490" y="680" width="120" height="60" as="geometry"/></mxCell><mxCell id="fAZCSN9p-7HC3hCrflS_-8" value="istiod" style="rounded=1;whiteSpace=wrap;html=1;fillColor=#dae8fc;strokeColor=#6c8ebf;" parent="DMBHtSkpAmCUNlvPPmwe-1" vertex="1"><mxGeometry x="690" y="680" width="120" height="60" as="geometry"/></mxCell><mxCell id="fAZCSN9p-7HC3hCrflS_-9" value="" style="endArrow=none;html=1;entryX=0.5;entryY=1;entryDx=0;entryDy=0;exitX=0.5;exitY=0;exitDx=0;exitDy=0;dashed=1;dashPattern=1 2;strokeWidth=2;fillColor=#f5f5f5;strokeColor=#3399FF;" parent="DMBHtSkpAmCUNlvPPmwe-1" source="fAZCSN9p-7HC3hCrflS_-5" target="fAZCSN9p-7HC3hCrflS_-0" edge="1"><mxGeometry width="50" height="50" relative="1" as="geometry"><mxPoint x="140" y="610" as="sourcePoint"/><mxPoint x="450" y="480" as="targetPoint"/></mxGeometry></mxCell><mxCell id="fAZCSN9p-7HC3hCrflS_-10" value="" style="endArrow=none;html=1;entryX=0.5;entryY=1;entryDx=0;entryDy=0;exitX=0.5;exitY=0;exitDx=0;exitDy=0;strokeWidth=2;strokeColor=#3399FF;dashed=1;dashPattern=1 2;" parent="DMBHtSkpAmCUNlvPPmwe-1" source="fAZCSN9p-7HC3hCrflS_-6" edge="1"><mxGeometry width="50" height="50" relative="1" as="geometry"><mxPoint x="329.5" y="620" as="sourcePoint"/><mxPoint x="329.5" y="130" as="targetPoint"/></mxGeometry></mxCell><mxCell id="fAZCSN9p-7HC3hCrflS_-11" value="" style="endArrow=none;html=1;entryX=0.5;entryY=1;entryDx=0;entryDy=0;exitX=0.5;exitY=0;exitDx=0;exitDy=0;strokeColor=#007FFF;dashed=1;dashPattern=1 2;strokeWidth=2;" parent="DMBHtSkpAmCUNlvPPmwe-1" source="fAZCSN9p-7HC3hCrflS_-7" edge="1"><mxGeometry width="50" height="50" relative="1" as="geometry"><mxPoint x="549.5" y="620" as="sourcePoint"/><mxPoint x="549.5" y="130" as="targetPoint"/></mxGeometry></mxCell><mxCell id="fAZCSN9p-7HC3hCrflS_-12" value="" style="endArrow=none;html=1;entryX=0.5;entryY=1;entryDx=0;entryDy=0;exitX=0.5;exitY=0;exitDx=0;exitDy=0;strokeColor=#007FFF;strokeWidth=2;dashed=1;dashPattern=1 2;" parent="DMBHtSkpAmCUNlvPPmwe-1" source="fAZCSN9p-7HC3hCrflS_-8" edge="1"><mxGeometry width="50" height="50" relative="1" as="geometry"><mxPoint x="749.5" y="620" as="sourcePoint"/><mxPoint x="749.5" y="130" as="targetPoint"/></mxGeometry></mxCell><mxCell id="fAZCSN9p-7HC3hCrflS_-15" value="" style="endArrow=classic;html=1;" parent="DMBHtSkpAmCUNlvPPmwe-1" edge="1"><mxGeometry width="50" height="50" relative="1" as="geometry"><mxPoint x="330" y="170" as="sourcePoint"/><mxPoint x="550" y="170" as="targetPoint"/></mxGeometry></mxCell><mxCell id="fAZCSN9p-7HC3hCrflS_-16" value="Fetch X.509-SVID call" style="edgeLabel;html=1;align=center;verticalAlign=middle;resizable=0;points=[];" parent="fAZCSN9p-7HC3hCrflS_-15" vertex="1" connectable="0"><mxGeometry x="-0.4947" y="2" relative="1" as="geometry"><mxPoint x="42" as="offset"/></mxGeometry></mxCell><mxCell id="fAZCSN9p-7HC3hCrflS_-18" value="" style="endArrow=classic;html=1;" parent="DMBHtSkpAmCUNlvPPmwe-1" edge="1"><mxGeometry width="50" height="50" relative="1" as="geometry"><mxPoint x="550" y="250" as="sourcePoint"/><mxPoint x="330" y="250" as="targetPoint"/></mxGeometry></mxCell><mxCell id="fAZCSN9p-7HC3hCrflS_-19" value="Return X.509 cert, key and bundles" style="edgeLabel;html=1;align=center;verticalAlign=middle;resizable=0;points=[];" parent="fAZCSN9p-7HC3hCrflS_-18" vertex="1" connectable="0"><mxGeometry x="0.2455" y="-1" relative="1" as="geometry"><mxPoint x="26" as="offset"/></mxGeometry></mxCell><mxCell id="fAZCSN9p-7HC3hCrflS_-32" value="Validate token*" style="endArrow=classic;html=1;" parent="DMBHtSkpAmCUNlvPPmwe-1" edge="1"><mxGeometry width="50" height="50" relative="1" as="geometry"><mxPoint x="750" y="510" as="sourcePoint"/><mxPoint x="750" y="540" as="targetPoint"/><Array as="points"><mxPoint x="780" y="510"/><mxPoint x="780" y="540"/></Array></mxGeometry></mxCell><mxCell id="fAZCSN9p-7HC3hCrflS_-33" value="*Validate token's principal with the namespace and service account" style="text;html=1;strokeColor=none;fillColor=none;align=center;verticalAlign=middle;whiteSpace=wrap;rounded=0;" parent="DMBHtSkpAmCUNlvPPmwe-1" vertex="1"><mxGeometry x="880" y="530" width="40" height="20" as="geometry"/></mxCell><mxCell id="fAZCSN9p-7HC3hCrflS_-35" value="Build Envoy configs" style="endArrow=classic;html=1;" parent="DMBHtSkpAmCUNlvPPmwe-1" edge="1"><mxGeometry width="50" height="50" relative="1" as="geometry"><mxPoint x="750" y="570" as="sourcePoint"/><mxPoint x="750" y="600" as="targetPoint"/><Array as="points"><mxPoint x="780" y="570"/><mxPoint x="780" y="600"/></Array></mxGeometry></mxCell><mxCell id="fAZCSN9p-7HC3hCrflS_-40" value="" style="endArrow=classic;html=1;" parent="DMBHtSkpAmCUNlvPPmwe-1" edge="1"><mxGeometry width="50" height="50" relative="1" as="geometry"><mxPoint x="330" y="460" as="sourcePoint"/><mxPoint x="140" y="460" as="targetPoint"/></mxGeometry></mxCell><mxCell id="fAZCSN9p-7HC3hCrflS_-41" value="SDS Response" style="edgeLabel;html=1;align=center;verticalAlign=middle;resizable=0;points=[];" parent="fAZCSN9p-7HC3hCrflS_-40" vertex="1" connectable="0"><mxGeometry x="0.44" y="-2" relative="1" as="geometry"><mxPoint x="34" as="offset"/></mxGeometry></mxCell><mxCell id="fAZCSN9p-7HC3hCrflS_-43" value="" style="swimlane;startSize=0;fillColor=#f5f5f5;fontColor=#333333;strokeColor=#E6E6E6;strokeWidth=3;" parent="DMBHtSkpAmCUNlvPPmwe-1" vertex="1"><mxGeometry x="30" y="24" width="930" height="780" as="geometry"/></mxCell><mxCell id="OiqwL_-pi9Fa4thkf5hX-0" value="" style="endArrow=classic;html=1;" parent="fAZCSN9p-7HC3hCrflS_-43" edge="1"><mxGeometry width="50" height="50" relative="1" as="geometry"><mxPoint x="110" y="356" as="sourcePoint"/><mxPoint x="300" y="356" as="targetPoint"/></mxGeometry></mxCell><mxCell id="OiqwL_-pi9Fa4thkf5hX-1" value="ADS Request" style="edgeLabel;html=1;align=center;verticalAlign=middle;resizable=0;points=[];" parent="OiqwL_-pi9Fa4thkf5hX-0" vertex="1" connectable="0"><mxGeometry x="-0.4947" y="2" relative="1" as="geometry"><mxPoint x="42" as="offset"/></mxGeometry></mxCell><mxCell id="fAZCSN9p-7HC3hCrflS_-36" value="" style="endArrow=classic;html=1;" parent="fAZCSN9p-7HC3hCrflS_-43" edge="1"><mxGeometry width="50" height="50" relative="1" as="geometry"><mxPoint x="720" y="596" as="sourcePoint"/><mxPoint x="300" y="596" as="targetPoint"/></mxGeometry></mxCell><mxCell id="fAZCSN9p-7HC3hCrflS_-37" value="Istio Envoy configs" style="edgeLabel;html=1;align=center;verticalAlign=middle;resizable=0;points=[];" parent="fAZCSN9p-7HC3hCrflS_-36" vertex="1" connectable="0"><mxGeometry x="-0.0492" y="-2" relative="1" as="geometry"><mxPoint as="offset"/></mxGeometry></mxCell><mxCell id="fAZCSN9p-7HC3hCrflS_-13" value="" style="endArrow=classic;html=1;" parent="fAZCSN9p-7HC3hCrflS_-43" edge="1"><mxGeometry width="50" height="50" relative="1" as="geometry"><mxPoint x="110" y="326" as="sourcePoint"/><mxPoint x="300" y="326" as="targetPoint"/></mxGeometry></mxCell><mxCell id="fAZCSN9p-7HC3hCrflS_-14" value="SDS Request" style="edgeLabel;html=1;align=center;verticalAlign=middle;resizable=0;points=[];" parent="fAZCSN9p-7HC3hCrflS_-13" vertex="1" connectable="0"><mxGeometry x="-0.4947" y="2" relative="1" as="geometry"><mxPoint x="42" as="offset"/></mxGeometry></mxCell><mxCell id="fAZCSN9p-7HC3hCrflS_-17" value="Attest caller" style="endArrow=classic;html=1;" parent="fAZCSN9p-7HC3hCrflS_-43" edge="1"><mxGeometry width="50" height="50" relative="1" as="geometry"><mxPoint x="520" y="166" as="sourcePoint"/><mxPoint x="520" y="196" as="targetPoint"/><Array as="points"><mxPoint x="550" y="166"/><mxPoint x="550" y="196"/></Array></mxGeometry></mxCell><mxCell id="77Sx3NdN7fALzjvfZpwu-0" value="Cache crypto materials" style="endArrow=classic;html=1;" parent="fAZCSN9p-7HC3hCrflS_-43" edge="1"><mxGeometry width="50" height="50" relative="1" as="geometry"><mxPoint x="300" y="256" as="sourcePoint"/><mxPoint x="300" y="286" as="targetPoint"/><Array as="points"><mxPoint x="330" y="256"/><mxPoint x="330" y="286"/></Array></mxGeometry></mxCell><mxCell id="fAZCSN9p-7HC3hCrflS_-20" value="Build SDS Response from cache" style="endArrow=classic;html=1;" parent="fAZCSN9p-7HC3hCrflS_-43" edge="1"><mxGeometry width="50" height="50" relative="1" as="geometry"><mxPoint x="300" y="386" as="sourcePoint"/><mxPoint x="300" y="416" as="targetPoint"/><Array as="points"><mxPoint x="330" y="386"/><mxPoint x="330" y="416"/></Array></mxGeometry></mxCell><mxCell id="fAZCSN9p-7HC3hCrflS_-30" value="" style="endArrow=none;html=1;" parent="fAZCSN9p-7HC3hCrflS_-43" edge="1"><mxGeometry width="50" height="50" relative="1" as="geometry"><mxPoint x="300" y="476" as="sourcePoint"/><mxPoint x="720" y="476" as="targetPoint"/></mxGeometry></mxCell><mxCell id="fAZCSN9p-7HC3hCrflS_-31" value="Fetch Envoy configs (ADS)" style="edgeLabel;html=1;align=center;verticalAlign=middle;resizable=0;points=[];" parent="fAZCSN9p-7HC3hCrflS_-30" vertex="1" connectable="0"><mxGeometry x="-0.4947" y="2" relative="1" as="geometry"><mxPoint x="14" y="-12" as="offset"/></mxGeometry></mxCell><mxCell id="fAZCSN9p-7HC3hCrflS_-27" value="TLS connection" style="text;html=1;strokeColor=none;fillColor=none;align=center;verticalAlign=middle;whiteSpace=wrap;rounded=0;" parent="fAZCSN9p-7HC3hCrflS_-43" vertex="1"><mxGeometry x="590" y="446" width="40" height="20" as="geometry"/></mxCell><mxCell id="fAZCSN9p-7HC3hCrflS_-26" value="Send K8s JWT token" style="rounded=0;whiteSpace=wrap;html=1;fillColor=#fff2cc;strokeColor=#d6b656;" parent="fAZCSN9p-7HC3hCrflS_-43" vertex="1"><mxGeometry x="380" y="486" width="110" height="30" as="geometry"/></mxCell><mxCell id="fAZCSN9p-7HC3hCrflS_-38" value="" style="endArrow=classic;html=1;" parent="fAZCSN9p-7HC3hCrflS_-43" edge="1"><mxGeometry width="50" height="50" relative="1" as="geometry"><mxPoint x="300" y="626" as="sourcePoint"/><mxPoint x="110" y="626" as="targetPoint"/></mxGeometry></mxCell><mxCell id="fAZCSN9p-7HC3hCrflS_-39" value="ADS Response" style="edgeLabel;html=1;align=center;verticalAlign=middle;resizable=0;points=[];" parent="fAZCSN9p-7HC3hCrflS_-38" vertex="1" connectable="0"><mxGeometry x="0.44" y="-2" relative="1" as="geometry"><mxPoint x="34" as="offset"/></mxGeometry></mxCell><mxCell id="77Sx3NdN7fALzjvfZpwu-1" value="Start()" style="rounded=0;whiteSpace=wrap;html=1;fillColor=#d5e8d4;strokeColor=#82b366;" parent="fAZCSN9p-7HC3hCrflS_-43" vertex="1"><mxGeometry x="220" y="116" width="70" height="16" as="geometry"/></mxCell></root></mxGraphModel></diagram><diagram id="dY4jbbQjLFsdM4TPPS3_" name="Istio Proposal Flow-Overview"><mxGraphModel dx="870" dy="582" grid="1" gridSize="10" guides="1" tooltips="1" connect="1" arrows="1" fold="1" page="1" pageScale="1" pageWidth="850" pageHeight="1100" math="0" shadow="0"><root><mxCell id="7pO0dDdpU80kcU0M_-Fb-0"/><mxCell id="7pO0dDdpU80kcU0M_-Fb-1" parent="7pO0dDdpU80kcU0M_-Fb-0"/><mxCell id="kNPjZQKuyhOWtj5MDbUD-10" value="" style="whiteSpace=wrap;html=1;aspect=fixed;fillColor=none;strokeWidth=2;strokeColor=#0066CC;" parent="7pO0dDdpU80kcU0M_-Fb-1" vertex="1"><mxGeometry x="250" y="50" width="470" height="470" as="geometry"/></mxCell><mxCell id="GQyMl_AH1ORrFTECcvoD-0" value="envoy" style="rounded=1;whiteSpace=wrap;html=1;fillColor=#dae8fc;strokeColor=#6c8ebf;strokeWidth=2;" parent="7pO0dDdpU80kcU0M_-Fb-1" vertex="1"><mxGeometry x="425" y="90" width="120" height="60" as="geometry"/></mxCell><mxCell id="GQyMl_AH1ORrFTECcvoD-1" value="Istio Agent" style="rounded=0;whiteSpace=wrap;html=1;fillColor=#E6E6E6;strokeWidth=2;" parent="7pO0dDdpU80kcU0M_-Fb-1" vertex="1"><mxGeometry x="320" y="210" width="320" height="100" as="geometry"/></mxCell><mxCell id="GQyMl_AH1ORrFTECcvoD-2" value="SDS" style="ellipse;whiteSpace=wrap;html=1;" parent="7pO0dDdpU80kcU0M_-Fb-1" vertex="1"><mxGeometry x="340" y="260" width="90" height="40" as="geometry"/></mxCell><mxCell id="GQyMl_AH1ORrFTECcvoD-3" value="xDS proxy" style="ellipse;whiteSpace=wrap;html=1;" parent="7pO0dDdpU80kcU0M_-Fb-1" vertex="1"><mxGeometry x="520" y="260" width="90" height="40" as="geometry"/></mxCell><mxCell id="GQyMl_AH1ORrFTECcvoD-4" value="SPIFFE Workload API" style="rounded=1;whiteSpace=wrap;html=1;fillColor=#fff2cc;strokeColor=#d6b656;strokeWidth=2;" parent="7pO0dDdpU80kcU0M_-Fb-1" vertex="1"><mxGeometry x="325" y="380" width="120" height="60" as="geometry"/></mxCell><mxCell id="GQyMl_AH1ORrFTECcvoD-5" value="istiod" style="rounded=0;whiteSpace=wrap;html=1;fillColor=#d5e8d4;strokeColor=#82b366;strokeWidth=2;" parent="7pO0dDdpU80kcU0M_-Fb-1" vertex="1"><mxGeometry x="490" y="380" width="150" height="100" as="geometry"/></mxCell><mxCell id="kNPjZQKuyhOWtj5MDbUD-0" value="discovery" style="ellipse;whiteSpace=wrap;html=1;" parent="7pO0dDdpU80kcU0M_-Fb-1" vertex="1"><mxGeometry x="520" y="380" width="90" height="40" as="geometry"/></mxCell><mxCell id="kNPjZQKuyhOWtj5MDbUD-1" value="" style="endArrow=classic;startArrow=classic;html=1;exitX=0.5;exitY=0;exitDx=0;exitDy=0;" parent="7pO0dDdpU80kcU0M_-Fb-1" source="GQyMl_AH1ORrFTECcvoD-2" edge="1"><mxGeometry width="50" height="50" relative="1" as="geometry"><mxPoint x="395" y="200" as="sourcePoint"/><mxPoint x="445" y="150" as="targetPoint"/></mxGeometry></mxCell><mxCell id="kNPjZQKuyhOWtj5MDbUD-8" value="SDS" style="edgeLabel;html=1;align=center;verticalAlign=middle;resizable=0;points=[];" parent="kNPjZQKuyhOWtj5MDbUD-1" vertex="1" connectable="0"><mxGeometry x="0.3439" y="-2" relative="1" as="geometry"><mxPoint as="offset"/></mxGeometry></mxCell><mxCell id="kNPjZQKuyhOWtj5MDbUD-2" value="" style="endArrow=classic;startArrow=classic;html=1;exitX=0.5;exitY=0;exitDx=0;exitDy=0;entryX=0.75;entryY=1;entryDx=0;entryDy=0;" parent="7pO0dDdpU80kcU0M_-Fb-1" source="GQyMl_AH1ORrFTECcvoD-3" target="GQyMl_AH1ORrFTECcvoD-0" edge="1"><mxGeometry width="50" height="50" relative="1" as="geometry"><mxPoint x="510" y="260" as="sourcePoint"/><mxPoint x="570" y="150" as="targetPoint"/></mxGeometry></mxCell><mxCell id="kNPjZQKuyhOWtj5MDbUD-9" value="ADS" style="edgeLabel;html=1;align=center;verticalAlign=middle;resizable=0;points=[];" parent="kNPjZQKuyhOWtj5MDbUD-2" vertex="1" connectable="0"><mxGeometry x="0.1863" y="-2" relative="1" as="geometry"><mxPoint as="offset"/></mxGeometry></mxCell><mxCell id="kNPjZQKuyhOWtj5MDbUD-4" value="" style="endArrow=classic;html=1;exitX=0.5;exitY=1;exitDx=0;exitDy=0;" parent="7pO0dDdpU80kcU0M_-Fb-1" source="GQyMl_AH1ORrFTECcvoD-2" target="GQyMl_AH1ORrFTECcvoD-4" edge="1"><mxGeometry width="50" height="50" relative="1" as="geometry"><mxPoint x="400" y="600" as="sourcePoint"/><mxPoint x="450" y="550" as="targetPoint"/></mxGeometry></mxCell><mxCell id="kNPjZQKuyhOWtj5MDbUD-11" value="gRPC call" style="edgeLabel;html=1;align=center;verticalAlign=middle;resizable=0;points=[];" parent="kNPjZQKuyhOWtj5MDbUD-4" vertex="1" connectable="0"><mxGeometry x="-0.1" relative="1" as="geometry"><mxPoint as="offset"/></mxGeometry></mxCell><mxCell id="kNPjZQKuyhOWtj5MDbUD-6" value="ADS" style="endArrow=classic;html=1;exitX=0.5;exitY=1;exitDx=0;exitDy=0;entryX=0.5;entryY=0;entryDx=0;entryDy=0;" parent="7pO0dDdpU80kcU0M_-Fb-1" source="GQyMl_AH1ORrFTECcvoD-3" target="kNPjZQKuyhOWtj5MDbUD-0" edge="1"><mxGeometry width="50" height="50" relative="1" as="geometry"><mxPoint x="400" y="590" as="sourcePoint"/><mxPoint x="450" y="540" as="targetPoint"/></mxGeometry></mxCell></root></mxGraphModel></diagram></mxfile>